<svg height="1080" shape-rendering="auto" width="1920" xmlns="http://www.w3.org/2000/svg">
<polygon fill="#3f3f3f" fill-opacity="1.0" points="76589.52352566215,6804.945178609117 -43247.91361989411,64543.22241637268 -33332.00990576804,-68108.18109498177 " stroke="#3f3f3f" stroke-opacity="1.0" stroke-width="2.0" />
<polygon fill="#3f3f3f" fill-opacity="1.0" points="37979.641551788976,6789.0034616418425 -23924.378392426883,31111.263117071154 -14036.063159362116,-34660.320578712985 " stroke="#3f3f3f" stroke-opacity="1.0" stroke-width="2.0" />
<polygon fill="#3f3f3f" fill-opacity="1.0" points="24970.946373449904,6762.493021648537 -17392.29157432923,19855.852811245924 -7549.854799120683,-23378.467332894452 " stroke="#3f3f3f" stroke-opacity="1.0" stroke-width="2.0" />
<polygon fill="#3f3f3f" fill-opacity="1.0" points="18364.02588412794,6725.5022444602355 -14052.02365671767,14149.768684011224 -4273.602227410273,-17635.486928471455 " stroke="#3f403f" stroke-opacity="1.0" stroke-width="2.0" />
<polygon fill="#3f3f3f" fill-opacity="1.0" points="14319.461397895222,6678.1543781437385 -11983.972032585087,10667.914993555478 -2287.4893653101335,-14106.40687169921 " stroke="#3f403f" stroke-opacity="1.0" stroke-width="2.0" />
<polygon fill="#3f3f3f" fill-opacity="1.0" points="11557.825499036746,6620.6070434612975 -10548.55949765826,8302.196285190068 -951.6660013784935,-11683.289328651364 " stroke="#3f403f" stroke-opacity="1.0" stroke-width="2.0" />
<polygon fill="#3f3f3f" fill-opacity="1.0" points="9531.10849950973,6553.05160810047 -9471.94693719468,6577.926563706209 8.038437684942524,-9891.639671806674 " stroke="#3f403f" stroke-opacity="1.0" stroke-width="2.0" />
<polygon fill="#3f3f3f" fill-opacity="1.0" points="7965.573513035794,6475.712427380453 -8617.460205461055,5257.930553974349 728.6866924252613,-8494.506981354798 " stroke="#404140" stroke-opacity="1.0" stroke-width="2.0" />
<polygon fill="#3f3f3f" fill-opacity="1.0" points="6709.373487755108,6388.845954717476 -7909.397871700818,4210.576624885996 1286.4243839457035,-7360.516079603471 " stroke="#404140" stroke-opacity="1.0" stroke-width="2.0" />
<polygon fill="#3f3f3f" fill-opacity="1.0" points="5671.596872466065,6292.739725692993 -7302.5531734311935,3356.9892958123855 1726.956300965123,-6411.0790215053785 " stroke="#404140" stroke-opacity="1.0" stroke-width="2.0" />
<polygon fill="#3f3f3f" fill-opacity="1.0" points="4794.560106349007,6187.711220112346 -6768.359275818966,2647.054397800275 2079.3991694699575,-5596.399117912621 " stroke="#404240" stroke-opacity="1.0" stroke-width="2.0" />
<polygon fill="#3f3f3f" fill-opacity="1.0" points="4039.953000548514,6074.10660696531 -6287.960875575574,2047.4212495822057 2363.2078750270603,-4883.471856547514 " stroke="#404240" stroke-opacity="1.0" stroke-width="2.0" />
<polygon fill="#3f3f3f" fill-opacity="1.0" points="3381.3778115771056,5952.299377701494 -5848.482554040736,1535.041988970625 2591.904742463627,-4249.622866672121 " stroke="#404240" stroke-opacity="1.0" stroke-width="2.0" />
<polygon fill="#3f3f3f" fill-opacity="1.0" points="2800.085210386501,5822.6888737105655 -5440.895486478545,1093.4795500109785 2775.210276092041,-3678.814423721545 " stroke="#404240" stroke-opacity="1.0" stroke-width="2.0" />
<polygon fill="#3f3f3f" fill-opacity="1.0" points="2282.415312247512,5685.698714347373 -5058.736595647242,710.6923158375997 2920.3212833997286,-3159.4285301849714 " stroke="#414341" stroke-opacity="1.0" stroke-width="2.0" />
<polygon fill="#3f3f3f" fill-opacity="1.0" points="1818.197852886455,5541.775132263607 -4697.307198222345,377.6494629004259 3032.7093453358857,-2682.880595164034 " stroke="#414341" stroke-opacity="1.0" stroke-width="2.0" />
<polygon fill="#3f3f3f" fill-opacity="1.0" points="1399.7166173873034,5391.385223198302 -4353.153703521845,87.4350051916033 3116.6370861345395,-2242.721728389908 " stroke="#414341" stroke-opacity="1.0" stroke-width="2.0" />
<polygon fill="#3f3f3f" fill-opacity="1.0" points="1021.0187386415096,5235.015117738025 -4023.720679428992,-165.34945672350318 3175.5019407874806,-1834.0396610145217 " stroke="#414341" stroke-opacity="1.0" stroke-width="2.0" />
<polygon fill="#3f3f3f" fill-opacity="1.0" points="677.4418556999457,5073.16808288183 -3707.112787475291,-384.99327936798227 3212.070931775344,-1453.0483035138463 " stroke="#414441" stroke-opacity="1.0" stroke-width="2.0" />
<polygon fill="#3f3f3f" fill-opacity="1.0" points="365.2829275949248,4906.362561535211 -3401.927491903465,-574.9626117438522 3228.64456430854,-1096.7999497913586 " stroke="#414441" stroke-opacity="1.0" stroke-width="2.0" />
<polygon fill="#3f3f3f" fill-opacity="1.0" points="81.56152950420577,4735.130158309377 -3107.134963400472,-738.1043797668463 3227.1734338962647,-762.9792785425323 " stroke="#414441" stroke-opacity="1.0" stroke-width="2.0" />
<polygon fill="#3f3f3f" fill-opacity="1.0" points="-176.15238725061735,4560.013580216797 -2821.990175686716,-876.7944208311305 3209.342562937333,-449.7531593856663 " stroke="#424442" stroke-opacity="1.0" stroke-width="2.0" />
<polygon fill="#3f3f3f" fill-opacity="1.0" points="-409.86584817051056,4381.564541029627 -2545.9674141540218,-993.0467268926641 3176.6332623245307,-155.65931413696126 " stroke="#424542" stroke-opacity="1.0" stroke-width="2.0" />
<polygon fill="#3f3f3f" fill-opacity="1.0" points="-621.2583724689356,4200.341638203992 -2278.71067878315,-1088.5951029845141 3130.3690512520852,120.47746478052 " stroke="#424542" stroke-opacity="1.0" stroke-width="2.0" />
<polygon fill="#3f3f3f" fill-opacity="1.0" points="-811.7545285257078,4016.9082113693457 -2019.9955518142615,-1164.9549313277503 3071.7500803399685,379.6092199584036 " stroke="#424542" stroke-opacity="1.0" stroke-width="2.0" />
<polygon fill="#3f3f3f" fill-opacity="1.0" points="-982.5796720865721,3831.8301914380627 -1769.6994659213844,-1223.470366583051 3001.8791380079556,622.5141751449881 " stroke="#424542" stroke-opacity="1.0" stroke-width="2.0" />
<polygon fill="#3f3f3f" fill-opacity="1.0" points="-1134.8031912868687,3645.6739494057556 -1527.778218707016,-1265.3507115399332 2921.7814099938846,849.8352621341775 " stroke="#424642" stroke-opacity="1.0" stroke-width="2.0" />
<polygon fill="#3f3f3f" fill-opacity="1.0" points="-1269.372347700318,3459.0041538876103 -1294.2471967497675,-1291.698653092859 2832.4195444500847,1062.1104992052494 " stroke="#424642" stroke-opacity="1.0" stroke-width="2.0" />
<polygon fill="#3f3f3f" fill-opacity="1.0" points="-1387.1389511576133,3272.381646370449 -1069.1661981093764,-1303.5323009378144 2734.7051492669893,1259.797154567364 " stroke="#424642" stroke-opacity="1.0" stroke-width="2.0" />
<polygon fill="#3f3f3f" fill-opacity="1.0" points="-1488.8805102331744,3086.3613430547075 -852.6270400251819,-1301.8024553521252 2629.507550258356,1443.291112297416 " stroke="#434643" stroke-opacity="1.0" stroke-width="2.0" />
<polygon fill="#3f3f3f" fill-opacity="1.0" points="-1575.3170776024144,2901.4901720155685 -644.7433497666283,-1287.4061642823533 2517.6604273690427,1612.9424922667831 " stroke="#434743" stroke-opacity="1.0" stroke-width="2.0" />
<polygon fill="#3f3f3f" fill-opacity="1.0" points="-1647.124705811387,2718.3050542288534 -445.642088265574,-1261.1973668955845 2399.966794076962,1769.0683126667302 " stroke="#434743" stroke-opacity="1.0" stroke-width="2.0" />
<polygon fill="#3f3f3f" fill-opacity="1.0" points="-1704.94620829798,2537.330936785998 -255.4564663199032,-1223.9952295046417 2277.202674617884,1911.9627927186425 " stroke="#434743" stroke-opacity="1.0" stroke-width="2.0" />
<polygon fill="#3f3f3f" fill-opacity="1.0" points="-1749.3997583530006,2359.0788863644552 -74.31999400991444,-1176.590639222031 2150.1197523629144,2041.9057528575759 " stroke="#434743" stroke-opacity="1.0" stroke-width="2.0" />
<polygon fill="#3f3f3f" fill-opacity="1.0" points="-1781.0857383741256,2184.0442507265498 97.63853611735121,-1119.7512163372892 2019.4472022567732,2159.1694656107384 " stroke="#434843" stroke-opacity="1.0" stroke-width="2.0" />
<polygon fill="#3f3f3f" fill-opacity="1.0" points="-1800.5921616226465,2012.7048956926192 260.29928675252756,-1054.225128182625 1885.8928748701182,2264.0242324900046 " stroke="#434843" stroke-opacity="1.0" stroke-width="2.0" />
<polygon fill="#3f3f3f" fill-opacity="1.0" points="-1808.4989205741285,1845.5195246746898 413.55495532578016,-980.7439280793537 1750.1439652483493,2356.7429034046627 " stroke="#434843" stroke-opacity="1.0" stroke-width="2.0" />
<polygon fill="#3f3f3f" fill-opacity="1.0" points="-1805.3810640552447,1682.9260874667707 557.3137906032488,-900.0245978167957 1612.8672734519967,2437.604510350024 " stroke="#444844" stroke-opacity="1.0" stroke-width="2.0" />
<polygon fill="#3f3f3f" fill-opacity="1.0" points="-1791.8112655125165,1525.3402845690036 691.5021221147081,-812.7709373977827 1474.7091433978096,2506.897152828779 " stroke="#444944" stroke-opacity="1.0" stroke-width="2.0" />
<polygon fill="#3f3f3f" fill-opacity="1.0" points="-1768.3616139426642,1373.1541728772434 816.0664631269767,-719.6744188746275 1336.2951508156889,2564.9202459973835 " stroke="#444944" stroke-opacity="1.0" stroke-width="2.0" />
<polygon fill="#3f3f3f" fill-opacity="1.0" points="-1735.6048350170506,1226.7348780994857 930.9752362862298,-621.414600082127 1198.2295987308205,2611.9862219826405 " stroke="#444944" stroke-opacity="1.0" stroke-width="2.0" />
<polygon fill="#3f3f3f" fill-opacity="1.0" points="-1694.115031121901,1086.4234187679303 1036.2201620735352,-518.6591775372253 1061.0948690483654,2648.4217587692942 " stroke="#444944" stroke-opacity="1.0" stroke-width="2.0" />
<polygon fill="#3f3f3f" fill-opacity="1.0" points="-1644.468014196195,952.5336462028787 1131.8173432419903,-412.06374466703255 925.4506709542047,2674.5685984641527 " stroke="#444a44" stroke-opacity="1.0" stroke-width="2.0" />
<polygon fill="#3f3f3f" fill-opacity="1.0" points="-1587.2412934689005,825.3513042544021 1217.808072972942,-302.27131105978947 791.8332204959595,2690.7840068053865 " stroke="#444a44" stroke-opacity="1.0" stroke-width="2.0" />
<polygon fill="#3f3f3f" fill-opacity="1.0" points="-1523.0137707876224,705.1332121023138 1294.2593902562944,-189.91163001172754 660.7543805313292,2697.4409179094127 " stroke="#454a45" stroke-opacity="1.0" stroke-width="2.0" />
<polygon fill="#3f3f3f" fill-opacity="1.0" points="-1452.365188667524,592.106572837067 1361.264402701479,-75.60037481385848 532.7007859660465,2694.92780197679 " stroke="#454a45" stroke-opacity="1.0" stroke-width="2.0" />
<polygon fill="#3f3f3f" fill-opacity="1.0" points="-1375.8753700710163,486.46840997621973 1418.9423944183532,40.061801359894616 408.13297565266316,2683.648288663886 " stroke="#454b45" stroke-opacity="1.0" stroke-width="2.0" />
<polygon fill="#3f3f3f" fill-opacity="1.0" points="-1294.1232839456316,388.3851334958845 1467.4387346139258,156.4902917049085 287.48454933170547,2664.0205747992068 " stroke="#454b45" stroke-opacity="1.0" stroke-width="2.0" />
<polygon fill="#3f3f3f" fill-opacity="1.0" points="-1207.685966459796,297.9922363766934 1506.9246010091483,273.11762175010756 171.1613654506477,2636.476641873198 " stroke="#454b45" stroke-opacity="1.0" stroke-width="2.0" />
<polygon fill="#3f3f3f" fill-opacity="1.0" points="-1117.1373244967099,215.3941220818914 1537.5965309942085,389.39457182361264 59.540793502501515,2601.461306094495 " stroke="#454b45" stroke-opacity="1.0" stroke-width="2.0" />
<polygon fill="#3f3f3f" fill-opacity="1.0" points="-1023.0468451488091,140.66406280408876 1559.6758125351323,504.7913155399408 -47.028967386322904,2559.4311216559695 " stroke="#454c45" stroke-opacity="1.0" stroke-width="2.0" />
<polygon fill="#3f3f3f" fill-opacity="1.0" points="-925.9782325837931,73.84428773941215 1573.4077261591426,618.798556171583 -148.22949357534824,2510.853156089005 " stroke="#454c45" stroke-opacity="1.0" stroke-width="2.0" />
<polygon fill="#3f3f3f" fill-opacity="1.0" points="-826.4879916368654,14.94620007611934 1579.060648833125,730.928644799793 -243.7726571962582,2456.2036551240876 " stroke="#464c46" stroke-opacity="1.0" stroke-width="2.0" />
<polygon fill="#3f3f3f" fill-opacity="1.0" points="-725.1239757502265,-36.04927917828877 1576.925030170363,840.7166659223263 -333.40105442013595,2395.966613255963 " stroke="#464c46" stroke-opacity="1.0" stroke-width="2.0" />
<polygon fill="#3f3f3f" fill-opacity="1.0" points="-622.4239153723751,-79.19124295926258 1567.3122511243523,947.7214777781181 -416.8883357519769,2330.632265181145 " stroke="#464d46" stroke-opacity="1.0" stroke-width="2.0" />
<polygon fill="#3f3f3f" fill-opacity="1.0" points="-518.9139416005088,-114.55820846255119 1550.553375129845,1051.5266960691492 -494.0394335293356,2260.695512393403 " stroke="#464d46" stroke-opacity="1.0" stroke-width="2.0" />
<polygon fill="#3f3f3f" fill-opacity="1.0" points="-415.10711866241195,-142.25740950450995 1526.9978015098409,1151.7416110485624 -564.6906828474293,2186.6542984559464 " stroke="#464d46" stroke-opacity="1.0" stroke-width="2.0" />
<polygon fill="#3f3f3f" fill-opacity="1.0" points="-311.5019977603762,-162.42397491657312 1497.0118308662918,1248.002029125806 -628.7098331059152,2109.0079457907677 " stroke="#464d46" stroke-opacity="1.0" stroke-width="2.0" />
<polygon fill="#3f3f3f" fill-opacity="1.0" points="-208.58120381532555,-175.21999744778236 1460.977152098099,1339.9710312333777 -685.9959482827733,2028.2554662144053 " stroke="#464d46" stroke-opacity="1.0" stroke-width="2.0" />
<polygon fill="#3f3f3f" fill-opacity="1.0" points="-106.8100657355597,-180.83349810902587 1419.2892606312873,1427.3396412210204 -736.4791948957272,1944.8938568880062 " stroke="#464e46" stroke-opacity="1.0" stroke-width="2.0" />
<polygon fill="#3f3f3f" fill-opacity="1.0" points="-6.635299976466712,-179.477291327516 1372.355817393808,1509.8273985036853 -780.1205174173408,1859.4163928238313 " stroke="#474e47" stroke-opacity="1.0" stroke-width="2.0" />
<polygon fill="#3f3f3f" fill-opacity="1.0" points="91.51624365676572,-171.38775668803032 1320.5949580136084,1587.1828300988686 -816.9112016703738,1772.310926589163 " stroke="#474e47" stroke-opacity="1.0" stroke-width="2.0" />
<polygon fill="#3f3f3f" fill-opacity="1.0" points="187.23876579139045,-156.82352341690216 1264.4335616572275,1659.183818054096 -846.8723274486168,1684.058205362806 " stroke="#474e47" stroke-opacity="1.0" stroke-width="2.0" />
<polygon fill="#3f3f3f" fill-opacity="1.0" points="280.1486234351754,-136.06407411392593 1204.3054888521203,1725.6378590920117 -870.0541122872953,1595.130215021913 " stroke="#474f47" stroke-opacity="1.0" stroke-width="2.0" />
<polygon fill="#3f3f3f" fill-opacity="1.0" points="369.88535140269414,-109.40827455487283 1140.649797545138,1786.3822140927396 -886.535148947831,1505.9885604621338 " stroke="#474f47" stroke-opacity="1.0" stroke-width="2.0" />
<polygon fill="#3f3f3f" fill-opacity="1.0" points="456.1125932466102,-77.17283667175639 1073.908946538755,1841.2839457941668 -896.4215397853648,1417.082890877588 " stroke="#474f47" stroke-opacity="1.0" stroke-width="2.0" />
<polygon fill="#3f3f3f" fill-opacity="1.0" points="538.5189364209675,-39.690722068301056 1004.5269953132592,1890.2398438223008 -899.8459317342259,1328.8493782460007 " stroke="#474f47" stroke-opacity="1.0" stroke-width="2.0" />
<polygon fill="#3f3f3f" fill-opacity="1.0" points="616.8186470918663,2.6905063568556216 932.9478090852333,1933.1762368675832 -896.9664561770998,1241.709256775562 " stroke="#474f47" stroke-opacity="1.0" stroke-width="2.0" />
<polygon fill="#3f3f3f" fill-opacity="1.0" points="690.7523006886561,49.61037692760442 859.6132777688597,1970.0486924995166 -887.9655784575152,1156.0674305728778 " stroke="#485048" stroke-opacity="1.0" stroke-width="2.0" />
<polygon fill="#3f3f3f" fill-opacity="1.0" points="760.0873049566583,100.69723795441655 784.961557295967,2000.841605761593 -873.0488622526248,1072.3111562839917 " stroke="#485048" stroke-opacity="1.0" stroke-width="2.0" />
<polygon fill="#3f3f3f" fill-opacity="1.0" points="824.6183129306423,155.57001474568847 709.4253415128392,2025.567678311133 -852.4436544434807,990.8088069431775 " stroke="#485048" stroke-opacity="1.0" stroke-width="2.0" />
<polygon fill="#3f3f3f" fill-opacity="1.0" points="884.1675238965079,213.83998679926333 633.430172606366,2044.267290463994 -826.3976965028736,911.9087227367438 " stroke="#485048" stroke-opacity="1.0" stroke-width="2.0" />
<polygon fill="#3f3f3f" fill-opacity="1.0" points="938.5848710462847,275.1125770767069 557.3927977195659,2057.0077690714256 -795.1776687658509,835.9381538518682 " stroke="#485148" stroke-opacity="1.0" stroke-width="2.0" />
<polygon fill="#3f3f3f" fill-opacity="1.0" points="987.7480951577413,338.9891452702052 481.71957909709545,2063.882554695035 -759.0676742548371,763.2023000347598 " stroke="#485148" stroke-opacity="1.0" stroke-width="2.0" />
<polygon fill="#3f3f3f" fill-opacity="1.0" points="1031.5627042434423,405.06877701642657 406.80496475605923,2065.010272054916 -718.3676689995019,693.9834509286579 " stroke="#485148" stroke-opacity="1.0" stroke-width="2.0" />
<polygon fill="#3f3f3f" fill-opacity="1.0" points="1069.9618197137079,472.9500610931077 333.030026307141,2060.533708204567 -673.3918460208492,628.5402307023256 " stroke="#485148" stroke-opacity="1.0" stroke-width="2.0" />
<polygon fill="#3f3f3f" fill-opacity="1.0" points="1102.9059101821513,542.2328467517543 260.7610701570736,2050.6187033333786 -624.4669803392252,567.1069499148678 " stroke="#485148" stroke-opacity="1.0" stroke-width="2.0" />
<polygon fill="#3f3f3f" fill-opacity="1.0" points="1130.3824146097475,612.5199734930495 190.34832790715862,2035.4529595121148 -571.9307425169051,509.89306699483564 " stroke="#495249" stroke-opacity="1.0" stroke-width="2.0" />
<polygon fill="#3f3f3f" fill-opacity="1.0" points="1152.405257032129,683.4189657793602 122.12473132553177,2015.244773078173 -516.1299883576607,457.08276114246735 " stroke="#495249" stroke-opacity="1.0" stroke-width="2.0" />
<polygon fill="#3f3f3f" fill-opacity="1.0" points="1169.0142556433475,754.5436854000503 56.40477681495187,1990.2216967044537 -457.4190324582984,408.8346178954961 " stroke="#495249" stroke-opacity="1.0" stroke-width="2.0" />
<polygon fill="#3f3f3f" fill-opacity="1.0" points="1180.274429516067,825.5159344589581 -6.516516175180016,1960.6291375076944 -396.15791334088703,365.28142803334856 " stroke="#495249" stroke-opacity="1.0" stroke-width="2.0" />
<polygon fill="#3f3f3f" fill-opacity="1.0" points="1186.2752067214005,895.9670022379423 -66.36454883186343,1926.7288978283614 -332.71065788953774,326.5300999336964 " stroke="#495349" stroke-opacity="1.0" stroke-width="2.0" />
<polygon fill="#3f3f3f" fill-opacity="1.0" points="1187.1295380698066,965.5391495043606 -122.88598529692575,1888.7976655540115 -267.44355277287997,292.6616849416282 " stroke="#495349" stroke-opacity="1.0" stroke-width="2.0" />
<polygon fill="#3f3f3f" fill-opacity="1.0" points="1182.9729211260897,1033.8870241720488 -175.8494906729042,1847.1254610609976 -200.72343045318593,263.7315147669548 " stroke="#495349" stroke-opacity="1.0" stroke-width="2.0" />
<polygon fill="#3f3f3f" fill-opacity="1.0" points="1173.9623395551316,1100.6790025930736 -225.0463622886329,1802.0140480150533 -132.91597726649786,239.7694493918732 " stroke="#495349" stroke-opacity="1.0" stroke-width="2.0" />
<polygon fill="#3f3f3f" fill-opacity="1.0" points="1160.2751232291496,1165.598451149293 -270.2910523232169,1753.7753153994402 -64.38407090593341,220.78023345126803 " stroke="#4a534a" stroke-opacity="1.0" stroke-width="2.0" />
<polygon fill="#3f3f3f" fill-opacity="1.0" points="1142.107734870793,1228.3449032266221 -311.42158041719483,1702.7296382299105 4.513845546402649,206.74395854346744 " stroke="#4a544a" stroke-opacity="1.0" stroke-width="2.0" />
<polygon fill="#3f3f3f" fill-opacity="1.0" points="1119.6744893180594,1288.6351470887812 -348.2998354312974,1649.204224468719 73.42534611323734,197.61662844249986 " stroke="#4a544a" stroke-opacity="1.0" stroke-width="2.0" />
<polygon fill="#3f3f3f" fill-opacity="1.0" points="1093.206211775852,1346.2042206189803 -380.81176604379476,1593.53145566554 142.00555426794241,193.33082371547914 " stroke="#4a544a" stroke-opacity="1.0" stroke-width="2.0" />
<polygon fill="#3f3f3f" fill-opacity="1.0" points="1062.9488416640695,1400.8063093652715 -408.86746040463265,1536.0472288317728 209.9186187405625,193.79646180295526 " stroke="#4a544a" stroke-opacity="1.0" stroke-width="2.0" />
<polygon fill="#3f3f3f" fill-opacity="1.0" points="1029.1619888827238,1452.215544805838 -432.4011155860075,1477.0893069968097 276.8391267032833,198.9016481973531 " stroke="#4a544a" stroke-opacity="1.0" stroke-width="2.0" />
<polygon fill="#3f3f3f" fill-opacity="1.0" points="992.1174494900342,1500.2267002419187 -451.3708980823688,1416.9956858010962 342.4534485923341,208.51361395698518 " stroke="#4a554a" stroke-opacity="1.0" stroke-width="2.0" />
<polygon fill="#3f3f3f" fill-opacity="1.0" points="952.0976879293862,1544.6557822260218 -465.7586971157498,1356.1029833520179 406.46100918636273,222.47973442196076 " stroke="#4a554a" stroke-opacity="1.0" stroke-width="2.0" />
<polygon fill="#3f3f3f" fill-opacity="1.0" points="909.3942930450706,1585.3405159390763 -475.56977299258756,1294.744860405724 468.5754799475163,240.62862365519936 " stroke="#4b554b" stroke-opacity="1.0" stroke-width="2.0" />
<polygon fill="#3f3f3f" fill-opacity="1.0" points="864.3064151947883,1622.1407234398328 -480.8323032335585,1233.2504777421614 528.5258880387698,262.7712988180057 " stroke="#4b554b" stroke-opacity="1.0" stroke-width="2.0" />
<polygon fill="#3f3f3f" fill-opacity="1.0" points="817.1391917989522,1654.9385942206309 -481.59682965640394,1171.9429973728822 586.0576378574513,288.7024084064865 " stroke="#4b554b" stroke-opacity="1.0" stroke-width="2.0" />
<polygon fill="#3f3f3f" fill-opacity="1.0" points="768.2021686630744,1683.6388480132282 -477.93561003110176,1111.1381339632164 640.9334413680269,318.20151802355485 " stroke="#4b564b" stroke-opacity="1.0" stroke-width="2.0" />
<polygon fill="#3f3f3f" fill-opacity="1.0" points="717.8077243703237,1708.1687902942424 -469.94187834527133,1051.1427625634778 692.9341539749469,351.03444714227953 " stroke="#4b564b" stroke-opacity="1.0" stroke-width="2.0" />
<polygon fill="#3f3f3f" fill-opacity="1.0" points="666.2695049671487,1728.4782614395892 -457.7290181134361,992.2535884297288 741.8595131462878,386.9546501306828 " stroke="#4b564b" stroke-opacity="1.0" stroke-width="2.0" />
<polygon fill="#3f3f3f" fill-opacity="1.0" points="613.9008760563895,1744.5394809686682 -441.4296535350866,934.7558843750014 787.5287774786962,425.7046346563304 " stroke="#4b564b" stroke-opacity="1.0" stroke-width="2.0" />
<polygon fill="#3f3f3f" fill-opacity="1.0" points="561.0133992702932,1756.3467887997472 -421.19466365177897,878.9223007285327 829.7812643814859,467.0174104717212 " stroke="#4b564b" stroke-opacity="1.0" stroke-width="2.0" />
<polygon fill="#3f3f3f" fill-opacity="1.0" points="507.9153399213469,1763.916285905726 -397.19212497131355,825.0117525955916 868.4767850499657,510.6179614986821 " stroke="#4b574b" stroke-opacity="1.0" stroke-width="2.0" />
<polygon fill="#3f3f3f" fill-opacity="1.0" points="454.91021242287434,1767.2853772121166 -369.60618831607155,773.2683887057749 903.4959758931972,556.2247340821078 " stroke="#4c574c" stroke-opacity="1.0" stroke-width="2.0" />
<polygon fill="#3f3f3f" fill-opacity="1.0" points="402.2953698352111,1766.512220014582 -338.63589591168153,723.9206457153964 934.7405260764704,603.5511342700211 " stroke="#4c574c" stroke-opacity="1.0" stroke-width="2.0" />
<polygon fill="#3f3f3f" fill-opacity="1.0" points="350.3606436283456,1761.6750816097388 -304.4939449602924,677.1803913919729 962.1333013319468,652.3070269982879 " stroke="#4c574c" stroke-opacity="1.0" stroke-width="2.0" />
<polygon fill="#3f3f3f" fill-opacity="1.0" points="299.3870394596621,1752.8716102283142 -267.405404139041,633.2421596580427 985.6183646793789,702.2002301136428 " stroke="#4c584c" stroke-opacity="1.0" stroke-width="2.0" />
<polygon fill="#3f3f3f" fill-opacity="1.0" points="249.64549444755067,1740.2180237323741 -227.60638962804484,592.2824800099268 1005.1608951804942,752.9379962576984 " stroke="#4c584c" stroke-opacity="1.0" stroke-width="2.0" />
<polygon fill="#3f3f3f" fill-opacity="1.0" points="201.3957010798138,1723.848220886589 -185.3427074029455,554.4593033568997 1020.7470063231316,804.2284757565119 " stroke="#4c584c" stroke-opacity="1.0" stroke-width="2.0" />
<polygon fill="#3f3f3f" fill-opacity="1.0" points="154.88500253189318,1703.9128203358669 -140.86846862423704,519.9115258498913 1032.3834660923433,855.7821538142412 " stroke="#4c584c" stroke-opacity="1.0" stroke-width="2.0" />
<polygon fill="#3f3f3f" fill-opacity="1.0" points="110.34736378589588,1680.5781327167888 -94.44468501917225,488.7586117887122 1040.097321233276,907.3132554944993 " stroke="#4c584c" stroke-opacity="1.0" stroke-width="2.0" />
<polygon fill="#3f3f3f" fill-opacity="1.0" points="68.00242253918702,1654.0250715968973 -46.33785118181453,461.1003162151384 1043.9354286426271,958.5411121879634 " stroke="#4c594c" stroke-opacity="1.0" stroke-width="2.0" />
<polygon fill="#3f3f3f" fill-opacity="1.0" points="28.05462347310936,1624.4480091729347 3.181479286996307,437.01650731850987 1043.963897239894,1009.1914835085558 " stroke="#4d594d" stroke-opacity="1.0" stroke-width="2.0" />
<polygon fill="#3f3f3f" fill-opacity="1.0" points="-9.307560979738469,1592.053582865672 53.84011691520101,416.56708830298487 1040.267444064537,1058.9978288313437 " stroke="#4d594d" stroke-opacity="1.0" stroke-width="2.0" />
<polygon fill="#3f3f3f" fill-opacity="1.0" points="-43.91232067503097,1557.0594591242177 105.3636519561569,399.79201789362276 1032.9486687188737,1107.7025229821588 " stroke="#4d594d" stroke-opacity="1.0" stroke-width="2.0" />
<polygon fill="#3f3f3f" fill-opacity="1.0" points="-75.60510636162081,1519.6930608960652 157.4778557343582,386.7114281943061 1022.1272506272621,1155.0580109096295 " stroke="#4d594d" stroke-opacity="1.0" stroke-width="2.0" />
<polygon fill="#3f3f3f" fill-opacity="1.0" points="-104.24913507079987,1480.190265330085 209.91006116235565,377.32583815630596 1007.9390739084438,1200.8278965136094 " stroke="#4d5a4d" stroke-opacity="1.0" stroke-width="2.0" />
<polygon fill="#3f3f3f" fill-opacity="1.0" points="-129.72580097409087,1438.7940783580111 262.39051601575954,371.6164604742539 990.5352849583312,1244.7879611677342 " stroke="#4d5a4d" stroke-opacity="1.0" stroke-width="2.0" />
<polygon fill="#3f3f3f" fill-opacity="1.0" points="-151.93499086152866,1395.75329284545 314.6537027476915,369.5455992984307 970.0812881138365,1286.7271078561196 " stroke="#4d5a4d" stroke-opacity="1.0" stroke-width="2.0" />
<polygon fill="#3f3f3f" fill-opacity="1.0" points="-170.7953038604245,1351.321137016142 366.4396188470929,371.05713574060474 946.7556850133315,1326.4482272432524 " stroke="#4d5a4d" stroke-opacity="1.0" stroke-width="2.0" />
<polygon fill="#3f3f3f" fill-opacity="1.0" points="-186.2441754805551,1305.7539198333106 417.49501199548286,376.0770977570727 920.7491634850717,1363.768982409617 " stroke="#4e5a4e" stroke-opacity="1.0" stroke-width="2.0" />
<polygon fill="#3f3f3f" fill-opacity="1.0" points="-198.23790653340126,1259.3096799697455 467.5745645528069,384.5143106188217 892.2633419805945,1398.5225094114317 " stroke="#4e5b4e" stroke-opacity="1.0" stroke-width="2.0" />
<polygon fill="#3f3f3f" fill-opacity="1.0" points="-206.75159792818636,1212.2468449143105 516.442022203285,396.26112382656436 861.5095757249007,1430.5580312591255 " stroke="#4e5b4e" stroke-opacity="1.0" stroke-width="2.0" />
<polygon fill="#3f3f3f" fill-opacity="1.0" points="-211.7789927938893,1164.8229066474757 563.8712619150479,411.1942099993172 828.7077308788419,1459.7413833532064 " stroke="#4e5b4e" stroke-opacity="1.0" stroke-width="2.0" />
<polygon fill="#3f3f3f" fill-opacity="1.0" points="-213.33222781198896,1117.293120173054 609.6472947110907,429.1754309606961 794.0849331008976,1485.9554488662502 " stroke="#4e5b4e" stroke-opacity="1.0" stroke-width="2.0" />
<polygon fill="#3f3f3f" fill-opacity="1.0" points="-211.4414960673978,1069.909231018482 653.5671991118197,450.0527659684294 757.8742969555783,1509.100503013088 " stroke="#4e5b4e" stroke-opacity="1.0" stroke-width="2.0" />
<polygon fill="#3f3f3f" fill-opacity="1.0" points="-206.15462413287656,1022.9182376128681 695.4409814893133,473.6612967809766 720.3136426435635,1529.0944656061547 " stroke="#4e5b4e" stroke-opacity="1.0" stroke-width="2.0" />
<polygon fill="#3f3f3f" fill-opacity="1.0" points="-197.53656649330162,976.5611942217372 735.0923599683742,499.8242440315823 681.6442065249267,1545.8730617466806 " stroke="#4e5c4e" stroke-opacity="1.0" stroke-width="2.0" />
<polygon fill="#3f3f3f" fill-opacity="1.0" points="-185.66882078868673,931.072059861418 772.3594689174241,528.3540491854815 642.1093518712631,1559.3898909530997 " stroke="#4e5c4e" stroke-opacity="1.0" stroke-width="2.0" />
<polygon fill="#3f3f3f" fill-opacity="1.0" points="-170.64876770715733,886.6765983356062 807.0954814912707,559.0534961910728 601.9532862158862,1569.6164054733213 " stroke="#4f5c4f" stroke-opacity="1.0" stroke-width="2.0" />
<polygon fill="#3f3f3f" fill-opacity="1.0" points="-152.58893968953942,843.5913342335566 839.1691481154875,591.7168668012223 561.4197915740524,1576.5417989652208 " stroke="#4f5c4f" stroke-opacity="1.0" stroke-width="2.0" />
<polygon fill="#3f3f3f" fill-opacity="1.0" points="-131.61622291442848,802.0225694051237 868.4652492365512,626.1311234369505 520.7509736778769,1580.1728071579255 " stroke="#4f5c4f" stroke-opacity="1.0" stroke-width="2.0" />
<polygon fill="#3f3f3f" fill-opacity="1.0" points="-107.87099731516804,762.1654640843004 894.884961100687,662.077113392804 480.18603621448176,1580.533422522895 " stroke="#4f5d4f" stroke-opacity="1.0" stroke-width="2.0" />
<polygon fill="#3f3f3f" fill-opacity="1.0" points="-81.506219636928,724.2031864718525 918.3461337654512,699.3307881414025 439.9600858714764,1577.6645253867446 " stroke="#4f5d4f" stroke-opacity="1.0" stroke-width="2.0" />
<polygon fill="#3f3f3f" fill-opacity="1.0" points="-52.6864547719307,688.3061342109886 938.7834809891914,737.6644314839064 400.30297378273997,1571.623434305105 " stroke="#4f5d4f" stroke-opacity="1.0" stroke-width="2.0" />
<polygon fill="#3f3f3f" fill-opacity="1.0" points="-21.586860812918303,654.6312307997466 956.1486820825269,776.847890313303 361.438178730392,1562.4833788869505 " stroke="#4f5d4f" stroke-opacity="1.0" stroke-width="2.0" />
<polygon fill="#3f3f3f" fill-opacity="1.0" points="11.607866561622586,623.3212995819381 970.410396240707,816.6498018081478 323.5817371976703,1550.3328986099134 " stroke="#4f5d4f" stroke-opacity="1.0" stroke-width="2.0" />
<polygon fill="#3f3f3f" fill-opacity="1.0" points="46.70458461274552,594.5045175471653 981.5541903040285,856.8388109551562 286.94122508322675,1535.275171497678 " stroke="#4f5e4f" stroke-opacity="1.0" stroke-width="2.0" />
<polygon fill="#3f3f3f" fill-opacity="1.0" points="83.5028231046785,568.2939507516735 989.5823813133636,897.1847724093248 251.71479558195836,1517.427276839002 " stroke="#505e50" stroke-opacity="1.0" stroke-width="2.0" />
<polygon fill="#3f3f3f" fill-opacity="1.0" points="121.79592695022944,544.7871727478282 994.5137956372222,937.4599308391398 218.090277412548,1496.9193964130318 " stroke="#505e50" stroke-opacity="1.0" stroke-width="2.0" />
<polygon fill="#3f3f3f" fill-opacity="1.0" points="161.37221592725012,524.0659669828985 996.3834468437343,977.4400740711084 186.2443372290163,1473.8939589459933 " stroke="#505e50" stroke-opacity="1.0" stroke-width="2.0" />
<polygon fill="#3f3f3f" fill-opacity="1.0" points="202.01615543161913,506.1961136997128 995.2421348736041,1016.9056535412525 156.34170969477668,1448.5047327590344 " stroke="#505e50" stroke-opacity="1.0" stroke-width="2.0" />
<polygon fill="#3f3f3f" fill-opacity="1.0" points="243.50953223850033,491.2272614448536 991.1559694366479,1055.6428667801308 128.53449832485245,1420.9158717750154 " stroke="#505f50" stroke-opacity="1.0" stroke-width="2.0" />
<polygon fill="#3f3f3f" fill-opacity="1.0" points="285.6326292798767,479.19288286637686 984.2058209033262,1093.4446969011683 102.96154981679683,1391.3009202324545 " stroke="#505f50" stroke-opacity="1.0" stroke-width="2.0" />
<polygon fill="#3f3f3f" fill-opacity="1.0" points="328.165393512077,470.1103140647301 974.4867022920846,1130.111904328141 79.74790419583888,1359.8417816071292 " stroke="#505f50" stroke-opacity="1.0" stroke-width="2.0" />
<polygon fill="#3f3f3f" fill-opacity="1.0" points="370.88859104166573,463.98087634962985 962.1070862618599,1165.4539662851055 59.004322696474276,1326.7276573652643 " stroke="#505f50" stroke-opacity="1.0" stroke-width="2.0" />
<polygon fill="#3f3f3f" fill-opacity="1.0" points="413.58494380095885,460.7900788541057 947.1881613054134,1199.289959879247 40.826894893627696,1292.153961266647 " stroke="#505f50" stroke-opacity="1.0" stroke-width="2.0" />
<polygon fill="#3f3f3f" fill-opacity="1.0" points="456.04024221472633,460.5079000666924 929.8630316019489,1231.4493849324153 25.296726183325177,1256.3212150008928 " stroke="#515f51" stroke-opacity="1.0" stroke-width="2.0" />
<polygon fill="#3f3f3f" fill-opacity="1.0" points="498.0444284763543,463.0891459656805 910.275865225673,1261.772923058674 12.479706297972882,1219.4339309756451 " stroke="#516051" stroke-opacity="1.0" stroke-width="2.0" />
<polygon fill="#3f3f3f" fill-opacity="1.0" points="539.3926452538502,468.4738820772143 888.5809956195035,1290.1131298412943 2.426359126646844,1181.6994880814918 " stroke="#516051" stroke-opacity="1.0" stroke-width="2.0" />
<polygon fill="#3f3f3f" fill-opacity="1.0" points="579.8862448722571,476.5879364335459 864.9419814292371,1316.3350573312346 -4.828226301493999,1143.327006235219 " stroke="#516051" stroke-opacity="1.0" stroke-width="2.0" />
<polygon fill="#3f3f3f" fill-opacity="1.0" points="619.3337542680912,487.34347008050895 839.5306299523655,1340.3168044684603 -9.26438422045635,1104.5262254510308 " stroke="#516051" stroke-opacity="1.0" stroke-width="2.0" />
<polygon fill="#3f3f3f" fill-opacity="1.0" points="657.5517912818311,500.63961147575964 812.5259895868387,1361.9499934153978 -10.877780868669618,1065.5063951088423 " stroke="#516051" stroke-opacity="1.0" stroke-width="2.0" />
<polygon fill="#3f3f3f" fill-opacity="1.0" points="694.3659281447699,516.363150832934 784.1133167679578,1381.1401701864027 -9.67924491272737,1026.4751789806642 " stroke="#516151" stroke-opacity="1.0" stroke-width="2.0" />
<polygon fill="#3f3f3f" fill-opacity="1.0" points="729.6114983250757,534.389290202864 754.4830229559584,1397.8071283563393 -5.694521281033815,987.6375814407961 " stroke="#516151" stroke-opacity="1.0" stroke-width="2.0" />
<polygon fill="#3f3f3f" fill-opacity="1.0" points="763.1343432229982,554.5824448425104 723.8296072825535,1411.8851550331324 1.0360494944486618,949.1949001243568 " stroke="#516151" stroke-opacity="1.0" stroke-width="2.0" />
<polygon fill="#3f3f3f" fill-opacity="1.0" points="794.7914955450501,576.7970912063549 692.3505804817544,1423.3231986814703 10.457923973195989,911.343710112175 " stroke="#516151" stroke-opacity="1.0" stroke-width="2.0" />
<polygon fill="#3f3f3f" fill-opacity="1.0" points="824.4517965398304,600.8786567045147 660.2453857188286,1432.0849587856528 22.50281774134146,874.274884509832 " stroke="#526152" stroke-opacity="1.0" stroke-width="2.0" />
<polygon fill="#3f3f3f" fill-opacity="1.0" points="851.9964446421247,626.6644462075838 627.7143218915211,1438.148897736898 37.0892334663543,838.1726560555186 " stroke="#526152" stroke-opacity="1.0" stroke-width="2.0" />
<polygon fill="#3f3f3f" fill-opacity="1.0" points="877.3194734450033,653.9846001407515 594.9574749101587,1441.508175722262 54.12305164483843,803.2137241369863 " stroke="#526252" stroke-opacity="1.0" stroke-width="2.0" />
<polygon fill="#3f3f3f" fill-opacity="1.0" points="900.3281572999747,682.6630788996126 562.1736623684742,1442.170509776771 73.49818033155123,769.5664113236166 " stroke="#526252" stroke-opacity="1.0" stroke-width="2.0" />
<polygon fill="#3f3f3f" fill-opacity="1.0" points="920.9433432308167,712.5186682375892 529.5593968956432,1440.1579585355216 95.09725987354068,737.3898732268892 " stroke="#526252" stroke-opacity="1.0" stroke-width="2.0" />
<polygon fill="#3f3f3f" fill-opacity="1.0" points="939.099708235512,743.3660002202253 497.3078733329598,1435.506634586542 118.7924184315284,706.833365193233 " stroke="#526252" stroke-opacity="1.0" stroke-width="2.0" />
<polygon fill="#3f3f3f" fill-opacity="1.0" points="954.7459414407922,775.0165843148629 465.60798470671284,1428.2663466764213 144.4460738524947,678.035569008716 " stroke="#526252" stroke-opacity="1.0" stroke-width="2.0" />
<polygon fill="#3f3f3f" fill-opacity="1.0" points="967.8448509631429,807.2798431852564 434.64337177323443,1418.5001743573443 171.91177726362287,651.1239824573994 " stroke="#526352" stroke-opacity="1.0" stroke-width="2.0" />
<polygon fill="#3f3f3f" fill-opacity="1.0" points="978.3733957167753,839.9641477893078 404.5915106939781,1406.2839779847354 201.0350935892464,626.2143742259575 " stroke="#526352" stroke-opacity="1.0" stroke-width="2.0" />
<polygon fill="#3f3f3f" fill-opacity="1.0" points="986.3226427911104,872.8778464339917 375.622843159072,1391.7058472776166 231.65451404981735,603.4103062883923 " stroke="#536353" stroke-opacity="1.0" stroke-width="2.0" />
<polygon fill="#3f3f3f" fill-opacity="1.0" points="991.6976513958232,905.8302825240847 347.89995301854077,1374.865491937701 263.6023955856364,582.8027255382142 " stroke="#536353" stroke-opacity="1.0" stroke-width="2.0" />
<polygon fill="#3f3f3f" fill-opacity="1.0" points="994.5172847386201,938.6327958499975 321.57679320271933,1355.8735780868542 296.7059220586604,564.4696260631488 " stroke="#536353" stroke-opacity="1.0" stroke-width="2.0" />
<polygon fill="#3f3f3f" fill-opacity="1.0" points="994.8139515578752,971.0997023940189 296.7979664188349,1334.8510145246682 330.7880820232903,548.475783081313 " stroke="#536353" stroke-opacity="1.0" stroke-width="2.0" />
<polygon fill="#3f3f3f" fill-opacity="1.0" points="992.6332793772845,1003.0492477927164 273.69806280102074,1311.9281930274915 365.6686578216945,534.8725591797923 " stroke="#536453" stroke-opacity="1.0" stroke-width="2.0" />
<polygon fill="#3f3f3f" fill-opacity="1.0" points="988.0337218811655,1034.304529775153 252.401057367737,1287.2441871063572 401.16522075109793,523.6977831184902 " stroke="#536453" stroke-opacity="1.0" stroke-width="2.0" />
<polygon fill="#3f3f3f" fill-opacity="1.0" points="981.0861031253426,1064.6943851008173 233.0197698055481,1260.9459138130628 437.09412706910894,514.9757010861205 " stroke="#536453" stroke-opacity="1.0" stroke-width="2.0" />
<polygon fill="#3f3f3f" fill-opacity="1.0" points="971.8731015982288,1094.0542367465387 215.65538875319237,1233.1872633305063 473.27150964857924,508.71699992295487 " stroke="#536453" stroke-opacity="1.0" stroke-width="2.0" />
<polygon fill="#3f3f3f" fill-opacity="1.0" points="960.4886774283536,1122.2268973368252 200.39706240673576,1204.1282012046838 509.51426016491,504.91890145849146 " stroke="#536453" stroke-opacity="1.0" stroke-width="2.0" />
<polygon fill="#3f3f3f" fill-opacity="1.0" points="947.0374462968784,1149.063325075637 187.3215569071935,1173.933848171134 545.6409967959275,503.56532675322933 " stroke="#546554" stroke-opacity="1.0" stroke-width="2.0" />
<polygon fill="#3f3f3f" fill-opacity="1.0" points="931.6340038554251,1174.4233287181069 176.49298360819785,1142.773542597759 581.4730125363774,504.6271286841346 " stroke="#546554" stroke-opacity="1.0" stroke-width="2.0" />
<polygon fill="#3f3f3f" fill-opacity="1.0" points="914.4022046697369,1198.1762184165168 167.96259595501778,1110.819890608726 616.8351993752449,508.062390974758 " stroke="#546554" stroke-opacity="1.0" stroke-width="2.0" />
<polygon fill="#3f3f3f" fill-opacity="1.0" points="895.4743999073155,1220.201399584414 161.76865633932908,1078.247808970538 651.5569437533557,513.8167914450485 " stroke="#546554" stroke-opacity="1.0" stroke-width="2.0" />
<polygon fill="#3f3f3f" fill-opacity="1.0" points="874.990638161451,1240.3889072442807 157.93637292854402,1045.2335658115078 685.4729889100042,521.8240269442117 " stroke="#546554" stroke-opacity="1.0" stroke-width="2.0" />
<polygon fill="#3f3f3f" fill-opacity="1.0" points="853.0978339542121,1258.6398786560128 156.47790610604613,1011.9538242099835 718.4242599397421,532.0062971340037 " stroke="#546554" stroke-opacity="1.0" stroke-width="2.0" />
<polygon fill="#3f3f3f" fill-opacity="1.0" points="829.9489085864698,1274.8669623638048 157.3924438011852,978.5846936252026 750.2586476123447,544.2748440109928 " stroke="#546654" stroke-opacity="1.0" stroke-width="2.0" />
<polygon fill="#3f3f3f" fill-opacity="1.0" points="805.7019081033949,1288.994662146041 160.66634463718418,945.3007940580579 780.831747259421,558.5305437959014 " stroke="#546654" stroke-opacity="1.0" stroke-width="2.0" />
<polygon fill="#3f3f3f" fill-opacity="1.0" points="780.5191032188042,1300.9596147046802 166.2733474829065,912.2743377180258 810.007549298289,574.6645475772941 " stroke="#546654" stroke-opacity="1.0" stroke-width="2.0" />
<polygon fill="#3f3f3f" fill-opacity="1.0" points="754.5660760910389,1310.7108002854877 174.17484566244332,879.6742328377603 837.6590782465181,592.5589668767524 " stroke="#546654" stroke-opacity="1.0" stroke-width="2.0" />
<polygon fill="#3f3f3f" fill-opacity="1.0" points="728.0107988666929,1318.20968577652 184.32022375632772,847.665214119312 863.6689773769796,612.0876001041685 " stroke="#556655" stroke-opacity="1.0" stroke-width="2.0" />
<polygon fill="#3f3f3f" fill-opacity="1.0" points="701.0227089065282,1323.430300187626 196.64725462141092,816.4070041165264 887.9300364720605,633.1166956958474 " stroke="#556655" stroke-opacity="1.0" stroke-width="2.0" />
<polygon fill="#3f3f3f" fill-opacity="1.0" points="673.7717855805759,1326.3592427665967 211.08255396452057,786.0535096580742 910.3456604549039,655.5057475753296 " stroke="#556755" stroke-opacity="1.0" stroke-width="2.0" />
<polygon fill="#3f3f3f" fill-opacity="1.0" points="646.4276334669812,1326.9956243561585 227.54208952937012,756.7520571958643 930.8302770036485,679.1083184479777 " stroke="#556755" stroke-opacity="1.0" stroke-width="2.0" />
<polygon fill="#3f3f3f" fill-opacity="1.0" points="619.1585767121771,1325.3509429385172 245.93174169806178,728.6426707256742 949.3096815897609,703.7728863358079 " stroke="#556755" stroke-opacity="1.0" stroke-width="2.0" />
<polygon fill="#3f3f3f" fill-opacity="1.0" points="592.1307692089669,1321.4488946488818 266.1479120691302,701.8573956720065 965.7213187219029,729.3437096791123 " stroke="#556755" stroke-opacity="1.0" stroke-width="2.0" />
<polygon fill="#3f3f3f" fill-opacity="1.0" points="565.5073251247904,1315.3251218646885 288.0781763545454,676.5196718588611 980.0144985206639,755.6617062764496 " stroke="#556755" stroke-opacity="1.0" stroke-width="2.0" />
<polygon fill="#3f3f3f" fill-opacity="1.0" points="539.4474741657108,1307.0269002914756 311.6019777392968,652.7437584039586 992.1505480949922,782.5653413045663 " stroke="#556755" stroke-opacity="1.0" stroke-width="2.0" />
<polygon fill="#3f3f3f" fill-opacity="1.0" points="514.1057457933309,1296.6127672680088 336.5913566701434,630.6342130772954 1002.1028975365259,809.891519654695 " stroke="#556855" stroke-opacity="1.0" stroke-width="2.0" />
<polygon fill="#3f3f3f" fill-opacity="1.0" points="489.63118642306506,1284.152093800852 362.9117128854056,610.2854283576834 1009.857100691529,837.476477841465 " stroke="#556855" stroke-opacity="1.0" stroke-width="2.0" />
<polygon fill="#3f3f3f" fill-opacity="1.0" points="466.166613423994,1269.724603110749 390.4225953661097,591.7812261044742 1015.4107912098966,865.1566707847759 " stroke="#566856" stroke-opacity="1.0" stroke-width="2.0" />
<polygon fill="#3f3f3f" fill-opacity="1.0" points="443.8479095142252,1253.4198387286315 418.97851578066917,575.1945124380201 1018.7735747051061,892.7696488333479 " stroke="#566856" stroke-opacity="1.0" stroke-width="2.0" />
<polygon fill="#3f3f3f" fill-opacity="1.0" points="422.8033609025117,1235.3365854166027 448.42978091121824,560.586994093004 1019.9668581862697,920.1549204903934 " stroke="#566856" stroke-opacity="1.0" stroke-width="2.0" />
<polygon fill="#3f3f3f" fill-opacity="1.0" points="403.15304226830085,1215.5822464077905 478.62333948969865,548.0089571756141 1019.023618242001,947.1547964165942 " stroke="#566956" stroke-opacity="1.0" stroke-width="2.0" />
<polygon fill="#3f3f3f" fill-opacity="1.0" points="385.0082513997679,1194.2721806574818 509.4036388361878,537.4991089201533 1015.9881097640439,973.6152104223651 " stroke="#566956" stroke-opacity="1.0" stroke-width="2.0" />
<polygon fill="#3f3f3f" fill-opacity="1.0" points="368.4709960243662,1171.5290039756346 540.6134866806319,529.0844827049978 1010.9155172950025,999.3865133193669 " stroke="#566956" stroke-opacity="1.0" stroke-width="2.0" />
<polygon fill="#3f3f3f" fill-opacity="1.0" points="353.63353507045446,1147.4818580668978 572.0949135619358,522.780406253509 1003.8715513676102,1024.3242356795927 " stroke="#566956" stroke-opacity="1.0" stroke-width="2.0" />
<polygon fill="#3f3f3f" fill-opacity="1.0" points="340.5779762933542,1122.265651638003 603.6900312352182,518.5905326142763 994.9319924714282,1048.28981574772 " stroke="#566956" stroke-opacity="1.0" stroke-width="2.0" />
<polygon fill="#3f3f3f" fill-opacity="1.0" points="329.37593188635185,1096.0202778433768 635.2418825782869,516.506933188694 984.1821855353617,1071.1512889679288 " stroke="#566956" stroke-opacity="1.0" stroke-width="2.0" />
<polygon fill="#3f3f3f" fill-opacity="1.0" points="320.0882333783743,1068.8898124275102 666.5952785718802,516.5102517539176 971.7164880497461,1092.7839358185718 " stroke="#566a56" stroke-opacity="1.0" stroke-width="2.0" />
<polygon fill="#3f3f3f" fill-opacity="1.0" points="312.7647067970928,1041.0216969869334 697.5976180339925,518.5699181174153 957.6376751689154,1113.0708848956506 " stroke="#576a57" stroke-opacity="1.0" stroke-width="2.0" />
<polygon fill="#3f3f3f" fill-opacity="1.0" points="307.4440087506544,1012.5659118151726 728.0996859162892,522.6444197371034 942.0563053330562,1131.9036684477237 " stroke="#576a57" stroke-opacity="1.0" stroke-width="2.0" />
<polygon fill="#3f3f3f" fill-opacity="1.0" points="304.1535237549487,983.6741428110506 757.9564261190501,528.6816293500017 925.0900501260007,1149.1827278389476 " stroke="#576a57" stroke-opacity="1.0" stroke-width="2.0" />
<polygon fill="#3f3f3f" fill-opacity="1.0" points="302.90932280786893,954.4989469239605 787.02768494963,536.619186373853 906.8629922425007,1164.8178667021868 " stroke="#576a57" stroke-opacity="1.0" stroke-width="2.0" />
<polygon fill="#3f3f3f" fill-opacity="1.0" points="303.71618288920826,925.1929205797386 815.1789215368308,546.3849295815932 887.5048955739603,1178.7286498386684 " stroke="#576a57" stroke-opacity="1.0" stroke-width="2.0" />
<polygon fill="#3f3f3f" fill-opacity="1.0" points="306.5676667462499,895.9078754776026 842.2818817188975,557.8973782992302 867.1504515348523,1190.8447462231675 " stroke="#576b57" stroke-opacity="1.0" stroke-width="2.0" />
<polygon fill="#3f3f3f" fill-opacity="1.0" points="311.4462620124181,866.7940260729804 868.2152321447007,571.0662591447151 845.9385058428805,1201.1062147823043 " stroke="#576b57" stroke-opacity="1.0" stroke-width="2.0" />
<polygon fill="#3f3f3f" fill-opacity="1.0" points="318.3235784011426,837.999192963244 892.865151565,585.7930751099714 824.0112700338573,1209.4637319267845 " stroke="#576b57" stroke-opacity="1.0" stroke-width="2.0" />
<polygon fill="#3f3f3f" fill-opacity="1.0" points="327.1606014208749,809.6680262743313 916.125876541846,601.971713591234 801.5135220372786,1215.8787601344347 " stroke="#576b57" stroke-opacity="1.0" stroke-width="2.0" />
<polygon fill="#3f3f3f" fill-opacity="1.0" points="337.90800077150254,781.941253006476 937.9001990680945,619.4890897953112 778.5918001604028,1220.323657198213 " stroke="#576b57" stroke-opacity="1.0" stroke-width="2.0" />
<polygon fill="#3f3f3f" fill-opacity="1.0" points="350.5064913085753,754.9549521379637 958.0999138638543,638.2258217919006 755.3935948275711,1222.7817260701363 " stroke="#586b58" stroke-opacity="1.0" stroke-width="2.0" />
<polygon fill="#3f3f3f" fill-opacity="1.0" points="364.88724420125106,728.8398611076339 976.6462134012852,658.0569333455587 732.0665423974647,1223.2472055468074 " stroke="#586c58" stroke-opacity="1.0" stroke-width="2.0" />
<polygon fill="#3f3f3f" fill-opacity="1.0" points="380.97234566379456,703.7207171011938 993.4700290016362,678.8525805456818 708.7576253345699,1221.725202353125 " stroke="#586c58" stroke-opacity="1.0" stroke-width="2.0" />
<polygon fill="#3f3f3f" fill-opacity="1.0" points="398.67530041018574,679.7156363540466 1008.5123166474585,700.4787981595658 685.6123829423565,1218.2315654863874 " stroke="#586c58" stroke-opacity="1.0" stroke-width="2.0" />
<polygon fill="#3f3f3f" fill-opacity="1.0" points="417.9015767678136,656.9355344559324 1021.7242864566676,722.798261562399 662.7741367755192,1212.792703981669 " stroke="#586c58" stroke-opacity="1.0" stroke-width="2.0" />
<polygon fill="#3f3f3f" fill-opacity="1.0" points="438.54919019053466,635.4835904010995 1033.0675750721787,745.671060049302 640.3832347372872,1205.4453495495986 " stroke="#586c58" stroke-opacity="1.0" stroke-width="2.0" />
<polygon fill="#3f3f3f" fill-opacity="1.0" points="460.5093217342698,615.4547568737576 1042.5143605293486,768.9554773081856 618.5763177363823,1196.2362658180573 " stroke="#586c58" stroke-opacity="1.0" stroke-width="2.0" />
<polygon fill="#3f3f3f" fill-opacity="1.0" points="483.66696790078504,596.9353189932338 1050.0474194719882,792.5087748283906 597.4856126272275,1185.221906178376 " stroke="#586d58" stroke-opacity="1.0" stroke-width="2.0" />
<polygon fill="#3f3f3f" fill-opacity="1.0" points="507.9016181178313,580.0025034684159 1055.6601268944746,816.1879740384817 577.2382549876947,1172.468022493103 " stroke="#586d58" stroke-opacity="1.0" stroke-width="2.0" />
<polygon fill="#3f3f3f" fill-opacity="1.0" points="533.0879560072015,564.7241398278802 1059.3563988910373,839.850633007132 557.955645101762,1158.0492271649878 " stroke="#586d58" stroke-opacity="1.0" stroke-width="2.0" />
<polygon fill="#3f3f3f" fill-opacity="1.0" points="559.0965804967259,551.1583751024283 1061.1505791919328,863.3556136031664 539.7528403113417,1142.048511294406 " stroke="#596d59" stroke-opacity="1.0" stroke-width="2.0" />
<polygon fill="#3f3f3f" fill-opacity="1.0" points="585.7947427583726,539.3534430418874 1061.0672705585066,886.5638350942718 522.7379866831209,1124.5567218638416 " stroke="#596d59" stroke-opacity="1.0" stroke-width="2.0" />
<polygon fill="#3f3f3f" fill-opacity="1.0" points="613.0470949024171,529.3474886498082 1059.1411123935188,909.339010267823 507.0117927040642,1105.6720010823697 " stroke="#596d59" stroke-opacity="1.0" stroke-width="2.0" />
<polygon fill="#3f3f3f" fill-opacity="1.0" points="640.7164463274527,521.1684485194787 1055.41650619819,931.5483602811975 492.6670474743572,1085.4991911993245 " stroke="#596d59" stroke-opacity="1.0" stroke-width="2.0" />
<polygon fill="#3f3f3f" fill-opacity="1.0" points="668.6645236176802,514.8339871542389 1049.9472907717825,953.0633045919751 479.7881856105374,1064.1492082537868 " stroke="#596e59" stroke-opacity="1.0" stroke-width="2.0" />
<polygon fill="#3f3f3f" fill-opacity="1.0" points="696.752729892339,510.3514891559203 1042.796369301893,973.7601224796161 468.45090080576813,1041.7383883644643 " stroke="#596e59" stroke-opacity="1.0" stroke-width="2.0" />
<polygon fill="#3f3f3f" fill-opacity="1.0" points="724.8428995472314,507.718106868914 1034.0352907327197,993.5205828487608 458.7218097200493,1018.3878102823262 " stroke="#596e59" stroke-opacity="1.0" stroke-width="2.0" />
<polygon fill="#3f3f3f" fill-opacity="1.0" points="752.7980443844824,506.92086277548185 1023.7437880232383,1012.2325391988991 450.6581675922793,994.2225980256195 " stroke="#596e59" stroke-opacity="1.0" stroke-width="2.0" />
<polygon fill="#3f3f3f" fill-opacity="1.0" points="780.483087203766,507.9368056519205 1012.0092761163878,1029.7904868549292 444.30763667984615,969.3712074931509 " stroke="#596e59" stroke-opacity="1.0" stroke-width="2.0" />
<polygon fill="#3f3f3f" fill-opacity="1.0" points="807.7655790254568,510.73321921656236 998.9263126330222,1046.0960797766236 439.7081083415208,943.9647010068148 " stroke="#596e59" stroke-opacity="1.0" stroke-width="2.0" />
<polygon fill="#3f3f3f" fill-opacity="1.0" points="834.5163962330382,515.2678817307744 984.5960244796477,1061.0586045011667 436.8875792873139,918.1360137680595 " stroke="#5a6f5a" stroke-opacity="1.0" stroke-width="2.0" />
<polygon fill="#3f3f3f" fill-opacity="1.0" points="860.6104140577017,521.4893747544256 969.1255037160453,1074.5954090201935 435.8640822262526,892.0192162253817 " stroke="#5a6f5a" stroke-opacity="1.0" stroke-width="2.0" />
<polygon fill="#3f3f3f" fill-opacity="1.0" points="885.9271529817601,529.3374390090751 952.6271761670021,1086.6322846499713 436.6456708512379,865.7487763409544 " stroke="#5a6f5a" stroke-opacity="1.0" stroke-width="2.0" />
<polygon fill="#3f3f3f" fill-opacity="1.0" points="910.3513948080811,538.7433750665837 935.2181463810775,1097.1037992188753 439.23045881084096,839.4588257145416 " stroke="#5a6f5a" stroke-opacity="1.0" stroke-width="2.0" />
<polygon fill="#3f3f3f" fill-opacity="1.0" points="933.77376532949,549.6304863591567 917.0195226379533,1105.9535801688703 443.6067120325567,813.2824334719737 " stroke="#5a6f5a" stroke-opacity="1.0" stroke-width="2.0" />
<polygon fill="#3f3f3f" fill-opacity="1.0" points="956.0912807335908,561.9145618000164 898.1557257842564,1113.1345464456322 449.7529934821524,787.3508917543522 " stroke="#5a6f5a" stroke-opacity="1.0" stroke-width="2.0" />
<polygon fill="#3f3f3f" fill-opacity="1.0" points="977.2078550938609,575.5043951130475 878.7537857353492,1118.6090883339034 457.6383591707897,761.7930165530499 " stroke="#5a705a" stroke-opacity="1.0" stroke-width="2.0" />
<polygon fill="#3f3f3f" fill-opacity="1.0" points="997.0347665256265,590.3023377956368 858.9426295174723,1122.3491946789916 467.22260395690074,736.7344675253721 " stroke="#5a705a" stroke-opacity="1.0" stroke-width="2.0" />
<polygon fill="#3f3f3f" fill-opacity="1.0" points="1015.4910798246549,606.204882482496 838.8523647405611,1124.3365272206147 478.4565554347835,712.2970902968893 " stroke="#5a705a" stroke-opacity="1.0" stroke-width="2.0" />
<polygon fill="#3f3f3f" fill-opacity="1.0" points="1032.5040236549528,623.1032733400493 818.6135623872989,1124.562442049924 491.28241395774774,688.5982846100275 " stroke="#5a705a" stroke-opacity="1.0" stroke-width="2.0" />
<polygon fill="#3f3f3f" fill-opacity="1.0" points="1048.0093206098402,640.8841400017764 798.356542778468,1123.027958483104 505.6341366116913,665.7504015151201 " stroke="#5b705b" stroke-opacity="1.0" stroke-width="2.0" />
<polygon fill="#3f3f3f" fill-opacity="1.0" points="1061.9514687347923,659.4301514550335 778.2106685289324,1119.743675923899 521.4378627362748,643.8601726210674 " stroke="#5b705b" stroke-opacity="1.0" stroke-width="2.0" />
<polygon fill="#3f3f3f" fill-opacity="1.0" points="1074.2839733706928,678.62068620992 758.3036482427466,1114.729639561325 538.6123783865602,623.0281742287552 " stroke="#5b715b" stroke-opacity="1.0" stroke-width="2.0" />
<polygon fill="#3f3f3f" fill-opacity="1.0" points="1084.9695284503407,698.3325150208128 738.7608546107095,1108.0151560162813 557.0696169389491,603.3483289629061 " stroke="#5b715b" stroke-opacity="1.0" stroke-width="2.0" />
<polygon fill="#3f3f3f" fill-opacity="1.0" points="1093.9801466580047,718.4404923916396 719.7046604694551,1099.6385603103972 576.7151928725398,584.9074472979635 " stroke="#5b715b" stroke-opacity="1.0" stroke-width="2.0" />
<polygon fill="#3f3f3f" fill-opacity="1.0" points="1101.2972381398724,738.8182530766454 701.2537962588684,1089.6469357808965 597.4489656012586,567.7848111424585 " stroke="#5b715b" stroke-opacity="1.0" stroke-width="2.0" />
<polygon fill="#3f3f3f" fill-opacity="1.0" points="1106.9116377310559,759.3389097895453 683.5227321747338,1078.0957888052983 619.1656300942095,552.051801405157 " stroke="#5b715b" stroke-opacity="1.0" stroke-width="2.0" />
<polygon fill="#3f3f3f" fill-opacity="1.0" points="1110.8235809407906,779.8757483551556 666.6210881571617,1065.0486804281752 641.7553309020468,537.7715712166694 " stroke="#5b715b" stroke-opacity="1.0" stroke-width="2.0" />
<polygon fill="#3f3f3f" fill-opacity="1.0" points="1113.0426292102618,800.3029165787933 650.6530746832774,1050.5768171978318 665.10429610646,524.9987662233748 " stroke="#5b715b" stroke-opacity="1.0" stroke-width="2.0" />
<polygon fill="#3f3f3f" fill-opacity="1.0" points="1113.587545225593,820.4961031695262 635.7169671459438,1034.758603722561 689.0954876284625,513.779293107913 " stroke="#5b725b" stroke-opacity="1.0" stroke-width="2.0" />
<polygon fill="#3f3f3f" fill-opacity="1.0" points="1112.4861193306028,840.3332031331691 621.9046164001445,1017.679159643182 713.609264269252,504.15013722364904 " stroke="#5c725c" stroke-opacity="1.0" stroke-width="2.0" />
<polygon fill="#3f3f3f" fill-opacity="1.0" points="1109.7749483385896,859.6949661494559 609.3009978459907,999.4298038898413 738.5240538154193,496.1392299607029 " stroke="#5c725c" stroke-opacity="1.0" stroke-width="2.0" />
<polygon fill="#3f3f3f" fill-opacity="1.0" points="1105.4991682883588,878.4656245641139 597.9838011936155,980.1075092459075 763.717030518025,489.76536618997835 " stroke="#5c725c" stroke-opacity="1.0" stroke-width="2.0" />
<polygon fill="#3f3f3f" fill-opacity="1.0" points="1099.712142925701,896.5334977602043 588.0230628215037,959.8143303793454 789.0647942527947,485.0381718604497 " stroke="#5c725c" stroke-opacity="1.0" stroke-width="2.0" />
<polygon fill="#3f3f3f" fill-opacity="1.0" points="1092.4751099163732,913.7915698229398 579.4808423975917,938.6568086217634 814.4440476860343,481.9581215552968 " stroke="#5c725c" stroke-opacity="1.0" stroke-width="2.0" />
<polygon fill="#3f3f3f" fill-opacity="1.0" points="1083.856787009209,930.1380375776338 572.4109451829272,916.7453568766844 839.7322678078633,480.5166055456815 " stroke="#5c735c" stroke-opacity="1.0" stroke-width="2.0" />
<polygon fill="#3f3f3f" fill-opacity="1.0" points="1073.9329405672493,945.4768262602215 566.8586911823321,894.1936281212876 864.8083682504177,480.69604561849064 " stroke="#5c735c" stroke-opacity="1.0" stroke-width="2.0" />
<polygon fill="#3f3f3f" fill-opacity="1.0" points="1062.78591906973,959.7180702731076 562.8607320466331,871.1178710293511 889.5533488836368,482.47005869754116 " stroke="#5c735c" stroke-opacity="1.0" stroke-width="2.0" />
<polygon fill="#3f3f3f" fill-opacity="1.0" points="1050.5041543575608,972.7785566846151 560.4449163681298,847.6362762874456 913.8509292743087,485.80366702793924 " stroke="#5c735c" stroke-opacity="1.0" stroke-width="2.0" />
<polygon fill="#3f3f3f" fill-opacity="1.0" points="1037.1816335486988,984.5821293470427 559.6302037464083,823.8683172012002 937.5881627048927,490.6535534517568 " stroke="#5c735c" stroke-opacity="1.0" stroke-width="2.0" />
<polygon fill="#3f3f3f" fill-opacity="1.0" points="1022.9173446869222,995.0600517348823 560.4266277368367,799.9340881939521 960.6560275762406,496.96836007116497 " stroke="#5c735c" stroke-opacity="1.0" stroke-width="2.0" />
<polygon fill="#3f3f3f" fill-opacity="1.0" points="1007.8146993072463,1004.1513268399952 562.835307530511,775.9536447861384 982.9499931622424,504.6890283738657 " stroke="#5d735d" stroke-opacity="1.0" stroke-width="2.0" />
<polygon fill="#3f3f3f" fill-opacity="1.0" points="991.9809352031599,1011.8029727030389 566.8485079534194,752.0463486108375 1004.3705568434203,513.7491786861232 " stroke="#5d745d" stroke-opacity="1.0" stroke-width="2.0" />
<polygon fill="#3f3f3f" fill-opacity="1.0" points="975.5265027644489,1017.9702524089635 572.4497471155889,728.3302209689864 1024.823750119962,524.0755266220494 " stroke="#5d745d" stroke-opacity="1.0" stroke-width="2.0" />
<polygon fill="#3f3f3f" fill-opacity="1.0" points="958.5644383194382,1022.6168576274724 579.613950789263,704.9213083576136 1044.2216108912985,535.588334014913 " stroke="#5d745d" stroke-opacity="1.0" stroke-width="2.0" />
<polygon fill="#3f3f3f" fill-opacity="1.0" points="941.2097279616218,1025.715045035704 588.3076523500786,681.933063316198 1062.4826196882993,548.2018916480977 " stroke="#5d745d" stroke-opacity="1.0" stroke-width="2.0" />
<polygon fill="#3f3f3f" fill-opacity="1.0" points="923.5786653679232,1027.2457252185359 598.489236878013,659.4757438308152 1079.5320977540637,561.8250309506484 " stroke="#5d745d" stroke-opacity="1.0" stroke-width="2.0" />
<polygon fill="#3f3f3f" fill-opacity="1.0" points="905.7882071240394,1027.198503900558 610.1092277867763,637.655834413524 1095.3025650891843,576.3616616859169 " stroke="#5d745d" stroke-opacity="1.0" stroke-width="2.0" />
<polygon fill="#3f3f3f" fill-opacity="1.0" points="887.9553290616841,1025.571675621426 623.1106141324963,616.5754918363903 1109.7340568058196,591.7113325421833 " stroke="#5d755d" stroke-opacity="1.0" stroke-width="2.0" />
<polygon fill="#3f3f3f" fill-opacity="1.0" points="870.1963870831346,1022.3721702216878 637.4292165460745,596.3320183463912 1122.7743963707912,607.7698114319204 " stroke="#5d755d" stroke-opacity="1.0" stroke-width="2.0" />
<polygon fill="#3f3f3f" fill-opacity="1.0" points="852.6264859006908,1017.6154527579081 652.994089539505,577.0173650201924 1134.3794245598042,624.4296822218989 " stroke="#5d755d" stroke-opacity="1.0" stroke-width="2.0" />
<polygon fill="#3f3f3f" fill-opacity="1.0" points="835.3588590526872,1011.3253777126329 669.727957755742,558.7176677372785 1144.5131831915705,641.5809545500879 " stroke="#5e755e" stroke-opacity="1.0" stroke-width="2.0" />
<polygon fill="#3f3f3f" fill-opacity="1.0" points="818.5042634742263,1003.533998605229 687.5476835651821,541.5128180574103 1153.1480529605917,659.1116833373602 " stroke="#5e755e" stroke-opacity="1.0" stroke-width="2.0" />
<polygon fill="#3f3f3f" fill-opacity="1.0" points="802.1703918001958,994.281334342586 706.364763260383,525.4760710847564 1160.264844939421,676.9085945726574 " stroke="#5e755e" stroke-opacity="1.0" stroke-width="2.0" />
<polygon fill="#3f3f3f" fill-opacity="1.0" points="786.4613054611505,983.615093872909 726.0858489649338,510.6736921876279 1165.8528455739158,694.8577139394622 " stroke="#5e755e" stroke-opacity="1.0" stroke-width="2.0" />
<polygon fill="#3f3f3f" fill-opacity="1.0" points="771.4768915000109,971.5903609202384 746.6132932530206,497.16464422068395 1169.9098152469687,712.8449948590769 " stroke="#5e765e" stroke-opacity="1.0" stroke-width="2.0" />
<polygon fill="#3f3f3f" fill-opacity="1.0" points="757.312345889962,958.2692407807494 767.8457133738533,485.0003166669526 1172.4419407361852,730.7569425522973 " stroke="#5e765e" stroke-opacity="1.0" stroke-width="2.0" />
<polygon fill="#3f3f3f" fill-opacity="1.0" points="744.0576859724723,943.7204713534063 789.6785718899918,474.2242978814447 1173.4637421375362,748.4812307651486 " stroke="#5e765e" stroke-opacity="1.0" stroke-width="2.0" />
<polygon fill="#3f3f3f" fill-opacity="1.0" points="731.7972944597628,928.0190007560733 812.0047704712894,464.87219137765135 1172.9979350689482,765.9073078662747 " stroke="#5e765e" stroke-opacity="1.0" stroke-width="2.0" />
<polygon fill="#3f3f3f" fill-opacity="1.0" points="720.6094972595436,911.2455340430037 834.7152535366939,456.97147685429786 1171.0752492037627,782.926989102698 " stroke="#5e765e" stroke-opacity="1.0" stroke-width="2.0" />
<polygon fill="#3f3f3f" fill-opacity="1.0" points="710.5661771822898,893.486051689777 857.6996184048865,450.54141641356085 1167.734204412824,799.4350318966616 " stroke="#5e765e" stroke-opacity="1.0" stroke-width="2.0" />
<polygon fill="#3f3f3f" fill-opacity="1.0" points="701.7324253840535,874.8313026466913 880.8467286015161,445.59300617499457 1163.0208460144306,815.3296911783139 " stroke="#5e775e" stroke-opacity="1.0" stroke-width="2.0" />
<polygon fill="#3f3f3f" fill-opacity="1.0" points="694.1662321818089,855.3762748805243 904.0453269758126,442.1289732428826 1156.988440842379,830.5132518765924 " stroke="#5f775f" stroke-opacity="1.0" stroke-width="2.0" />
<polygon fill="#3f3f3f" fill-opacity="1.0" points="687.9182186549698,835.2196464271245 927.1846453022283,440.14381774004124 1149.6971360428022,844.8925358328341 " stroke="#5f775f" stroke-opacity="1.0" stroke-width="2.0" />
<polygon fill="#3f3f3f" fill-opacity="1.0" points="683.0314102171086,814.4632200628034 950.1550070835159,439.62389937947535 1141.2135826993763,858.3793805577209 " stroke="#5f775f" stroke-opacity="1.0" stroke-width="2.0" />
<polygon fill="#3f3f3f" fill-opacity="1.0" points="679.541053107425,793.2113447708674 972.8484203296728,440.54756780806775 1131.6105265629028,870.8910874210648 " stroke="#5f775f" stroke-opacity="1.0" stroke-width="2.0" />
<polygon fill="#3f3f3f" fill-opacity="1.0" points="677.4744745133697,771.5703272303225 995.1591571623625,442.88533572486085 1120.9663683242684,882.3508370448163 " stroke="#5f775f" stroke-opacity="1.0" stroke-width="2.0" />
<polygon fill="#3f3f3f" fill-opacity="1.0" points="676.8509867953713,749.6478365869194 1016.9843171859468,446.60009355171815 1109.3646960186823,892.6880698613622 " stroke="#5f775f" stroke-opacity="1.0" stroke-width="2.0" />
<polygon fill="#3f3f3f" fill-opacity="1.0" points="677.6818360431263,727.552305781953 1038.2243716738094,451.647364217362 1096.8937922830648,901.8388300006848 " stroke="#5f785f" stroke-opacity="1.0" stroke-width="2.0" />
<polygon fill="#3f3f3f" fill-opacity="1.0" points="679.9701949516962,705.3923327118235 1058.783685741339,457.9755964081147 1083.6461193069654,909.7460708800618 " stroke="#5f785f" stroke-opacity="1.0" stroke-width="2.0" />
<polygon fill="#3f3f3f" fill-opacity="1.0" points="683.7111997660252,683.2760844712673 1078.5710158141683,465.5264944411713 1069.717784419807,916.3599210875612 " stroke="#5f785f" stroke-opacity="1.0" stroke-width="2.0" />
<polygon fill="#3f3f3f" fill-opacity="1.0" points="688.8920308056873,661.3107078957377 1097.499979851073,474.23538272988844 1055.2079893432403,921.6379093743741 " stroke="#5f785f" stroke-opacity="1.0" stroke-width="2.0" />
<polygon fill="#3f3f3f" fill-opacity="1.0" points="695.4920358489966,639.6017495637848 1115.4894979445887,484.03160263636573 1040.2184662064155,925.5451477998494 " stroke="#5f785f" stroke-opacity="1.0" stroke-width="2.0" />
<polygon fill="#3f3f3f" fill-opacity="1.0" points="703.4828954282412,618.2525883490699 1132.464201097766,494.8389393453133 1024.8529034739934,928.0544723056171 " stroke="#607860" stroke-opacity="1.0" stroke-width="2.0" />
<polygon fill="#3f3f3f" fill-opacity="1.0" points="712.8288288669751,597.3638835240819 1148.3548061617266,506.5760762457189 1009.2163649712992,929.1465402301994 " stroke="#607860" stroke-opacity="1.0" stroke-width="2.0" />
<polygon fill="#3f3f3f" fill-opacity="1.0" points="723.4868396771103,577.0330413145375 1163.0984551145561,519.1570741737673 993.4147052083341,928.8098845116954 " stroke="#607960" stroke-opacity="1.0" stroke-width="2.0" />
<polygon fill="#3f3f3f" fill-opacity="1.0" points="735.406998729171,557.3537026852247 1176.639017066652,532.4918727525493 977.5539842041773,927.0409245622266 " stroke="#607960" stroke-opacity="1.0" stroke-width="2.0" />
<polygon fill="#3f3f3f" fill-opacity="1.0" points="748.5327634144506,538.4152550056572 1188.9273515895911,546.4868109617715 961.7398849959587,923.8439340325715 " stroke="#607960" stroke-opacity="1.0" stroke-width="2.0" />
<polygon fill="#3f3f3f" fill-opacity="1.0" points="762.8013308340484,520.3023700979604 1199.921532183878,561.0451639844923 946.0771369820737,919.2309659175476 " stroke="#607960" stroke-opacity="1.0" stroke-width="2.0" />
<polygon fill="#3f3f3f" fill-opacity="1.0" points="778.1440228776951,503.09457101085763 1209.5870289242673,576.067693308173 930.6689481980379,913.2217356809698 " stroke="#607960" stroke-opacity="1.0" stroke-width="2.0" />
<polygon fill="#3f3f3f" fill-opacity="1.0" points="794.4867008957891,486.8658296934273 1217.8968495484899,591.4532070043169 915.6164495557215,905.8434633022563 " stroke="#607960" stroke-opacity="1.0" stroke-width="2.0" />
<polygon fill="#3f3f3f" fill-opacity="1.0" points="811.7502075219827,471.68419756131857 1224.831638485004,607.0991270749456 901.0181539930137,897.1306753637363 " stroke="#607960" stroke-opacity="1.0" stroke-width="2.0" />
<polygon fill="#3f3f3f" fill-opacity="1.0" points="829.8508330715954,457.611470757548 1230.3797335464417,622.902060735075 886.9694333819631,887.1249685073775 " stroke="#607a60" stroke-opacity="1.0" stroke-width="2.0" />
<polygon fill="#3f3f3f" fill-opacity="1.0" points="848.7008038238424,444.702891710769 1234.537180246615,638.7583724983938 873.562015929543,875.8747357908376 " stroke="#607a60" stroke-opacity="1.0" stroke-width="2.0" />
<polygon fill="#3f3f3f" fill-opacity="1.0" points="868.2087893937496,433.00688838728877 1237.3077039289349,654.5647539482237 860.8835066773157,863.434857664488 " stroke="#617a61" stroke-opacity="1.0" stroke-width="2.0" />
<polygon fill="#3f3f3f" fill-opacity="1.0" points="888.2804263133074,422.5648524201092 1238.7026401217227,670.2187881075778 849.0169335649701,849.8663594723133 " stroke="#617a61" stroke-opacity="1.0" stroke-width="2.0" />
<polygon fill="#3f3f3f" fill-opacity="1.0" points="908.8188548710942,413.41095708022306 1238.740823759879,685.6195053702662 838.0403213690267,835.2360375495116 " stroke="#617a61" stroke-opacity="1.0" stroke-width="2.0" />
<polygon fill="#3f3f3f" fill-opacity="1.0" points="929.7252662057276,405.5720158333681 1237.4484381316029,700.6679280193425 828.02629566267,819.6160561472899 " stroke="#617a61" stroke-opacity="1.0" stroke-width="2.0" />
<polygon fill="#3f3f3f" fill-opacity="1.0" points="950.8994566111294,399.06738200077024 1234.8588246221034,715.2676004391781 819.0417187667671,803.0835175600522 " stroke="#617a61" stroke-opacity="1.0" stroke-width="2.0" />
<polygon fill="#3f3f3f" fill-opacity="1.0" points="972.2403859909574,393.90888981622027 1231.0122545324557,729.3251022226434 811.1473594765873,785.7200079611367 " stroke="#617b61" stroke-opacity="1.0" stroke-width="2.0" />
<polygon fill="#3f3f3f" fill-opacity="1.0" points="993.6467373955187,390.10083694544085 1225.9556644498123,742.7505414846099 804.397598154669,767.61112156995 " stroke="#617b61" stroke-opacity="1.0" stroke-width="2.0" />
<polygon fill="#3f3f3f" fill-opacity="1.0" points="1015.0174745871763,387.64000830825455 1219.742356834101,755.458025816669 798.8401685787228,748.8459658750768 " stroke="#617b61" stroke-opacity="1.0" stroke-width="2.0" />
<polygon fill="#3f3f3f" fill-opacity="1.0" points="1036.2523946092672,386.51574082083914 1212.431667665126,767.3661084547282 794.5159377256066,729.5166507244331 " stroke="#617b61" stroke-opacity="1.0" stroke-width="2.0" />
<polygon fill="#3f3f3f" fill-opacity="1.0" points="1057.2526723788949,386.7100284554878 1204.0886031617515,778.3982073803209 791.4587244593537,709.7177641641919 " stroke="#617b61" stroke-opacity="1.0" stroke-width="2.0" />
<polygon fill="#3f3f3f" fill-opacity="1.0" points="1077.9213943850286,388.1976667999954 1194.7834477407491,788.4829952370272 789.6951578742221,689.545837962978 " stroke="#617b61" stroke-opacity="1.0" stroke-width="2.0" />
<polygon fill="#3f3f3f" fill-opacity="1.0" points="1098.1640786499872,390.9464360891629 1184.591345526126,797.5547581145745 789.2445758238867,669.0988057962626 " stroke="#627b62" stroke-opacity="1.0" stroke-width="2.0" />
<polygon fill="#3f3f3f" fill-opacity="1.0" points="1117.889178203833,394.917321478074 1173.5918578496737,805.5537214338165 790.1189639464934,648.4754570881103 " stroke="#627c62" stroke-opacity="1.0" stroke-width="2.0" />
<polygon fill="#3f3f3f" fill-opacity="1.0" points="1137.0085654271493,400.0647691318002 1161.8684992993876,812.4263413550267 792.322935273463,627.7748895131734 " stroke="#627c62" stroke-opacity="1.0" stroke-width="2.0" />
<polygon fill="#3f3f3f" fill-opacity="1.0" points="1155.4379947371974,406.33697652004423 1149.5082549738554,818.1255603285458 795.8537502889468,607.0959631514105 " stroke="#627c62" stroke-opacity="1.0" stroke-width="2.0" />
<polygon fill="#3f3f3f" fill-opacity="1.0" points="1173.0975412250737,413.6762151288833 1136.601081687109,822.6110256098287 800.7013770878178,586.5367592612882 " stroke="#627c62" stroke-opacity="1.0" stroke-width="2.0" />
<polygon fill="#3f3f3f" fill-opacity="1.0" points="1189.912012996209,422.0191836361284 1123.2393959395408,825.8492697691157 806.8485910642501,566.1940465947563 " stroke="#627c62" stroke-opacity="1.0" stroke-width="2.0" />
<polygon fill="#3f3f3f" fill-opacity="1.0" points="1205.8113351227134,431.29738944272066 1109.5175515258527,827.8138524382144 814.2711133514331,546.1627581190654 " stroke="#627c62" stroke-opacity="1.0" stroke-width="2.0" />
<polygon fill="#3f3f3f" fill-opacity="1.0" points="1220.7309032825697,441.437556310768 1095.531309690562,828.4854627520094 822.9377870268681,526.535480937223 " stroke="#627c62" stroke-opacity="1.0" stroke-width="2.0" />
<polygon fill="#3f3f3f" fill-opacity="1.0" points="1234.6119053367465,452.3620557300344 1081.3773047651057,827.8519821591673 832.8107898981472,507.4019621107989 " stroke="#627d62" stroke-opacity="1.0" stroke-width="2.0" />
<polygon fill="#3f3f3f" fill-opacity="1.0" points="1247.4016092798056,463.9893595195269 1067.152508228068,825.9085074938819 843.845882492126,488.84863298659167 " stroke="#627d62" stroke-opacity="1.0" stroke-width="2.0" />
<polygon fill="#3f3f3f" fill-opacity="1.0" points="1259.053616191487,476.2345110697992 1052.9536941215783,822.6573344172235 855.9926896869342,470.95815451297767 " stroke="#627d62" stroke-opacity="1.0" stroke-width="2.0" />
<polygon fill="#3f3f3f" fill-opacity="1.0" points="1269.5280770150912,489.00961254526396 1038.876908732543,818.1079015515666 869.1950142523658,453.8089859031694 " stroke="#637d63" stroke-opacity="1.0" stroke-width="2.0" />
<polygon fill="#3f3f3f" fill-opacity="1.0" points="1278.7918721919689,502.22432529443586 1025.016947407416,812.2766958435027 883.3911804006143,437.4749788620619 " stroke="#637d63" stroke-opacity="1.0" stroke-width="2.0" />
<polygon fill="#3f3f3f" fill-opacity="1.0" points="1286.8187533891173,515.7863806600449 1011.4668413138684,805.1871198984782 898.5144052970136,422.0249994414772 " stroke="#637d63" stroke-opacity="1.0" stroke-width="2.0" />
<polygon fill="#3f3f3f" fill-opacity="1.0" points="1293.5894467674725,529.6020983404892 998.3173568924533,796.8693222330364 914.4931963400736,407.52257942647464 " stroke="#637d63" stroke-opacity="1.0" stroke-width="2.0" />
<polygon fill="#3f3f3f" fill-opacity="1.0" points="1299.0917174509455,543.5769094293273 985.6565106566015,787.3599915868929 931.2517718924526,394.02559898377984 " stroke="#637e63" stroke-opacity="1.0" stroke-width="2.0" />
<polygon fill="#3f3f3f" fill-opacity="1.0" points="1303.3203950693191,557.6158812504418 973.5691019005887,776.7021166261519 948.7105030300918,381.5860021234066 " stroke="#637e63" stroke-opacity="1.0" stroke-width="2.0" />
<polygon fill="#3f3f3f" fill-opacity="1.0" points="1306.2773604607264,571.6242411131815 962.1362657630369,764.9447125497418 966.7863737762364,370.2495463370767 " stroke="#637e63" stroke-opacity="1.0" stroke-width="2.0" />
<polygon fill="#3f3f3f" fill-opacity="1.0" points="1307.9714938303487,585.5078961339652 951.4350489688522,752.1425162827318 985.3934572007981,360.0555875833031 " stroke="#637e63" stroke-opacity="1.0" stroke-width="2.0" />
<polygon fill="#3f3f3f" fill-opacity="1.0" points="1308.418584870143,599.1739463084492 941.53801043583,738.3556521016455 1004.4434046940264,351.0369015899049 " stroke="#637e63" stroke-opacity="1.0" stroke-width="2.0" />
<polygon fill="#3f3f3f" fill-opacity="1.0" points="1307.641205548652,612.5311880709803 932.5128487844701,723.6492696874818 1023.8459456668777,343.21954224153797 " stroke="#637e63" stroke-opacity="1.0" stroke-width="2.0" />
<polygon fill="#3f3f3f" fill-opacity="1.0" points="1305.6685464792351,625.4906056454664 924.4220586315255,708.0931567410079 1043.509394889239,336.6227376135256 " stroke="#637e63" stroke-opacity="1.0" stroke-width="2.0" />
<polygon fill="#3f3f3f" fill-opacity="1.0" points="1302.5362179683082,637.9658475733963 917.3226173805135,691.7613284214716 1063.3411646511781,331.258824005132 " stroke="#647f64" stroke-opacity="1.0" stroke-width="2.0" />
<polygon fill="#3f3f3f" fill-opacity="1.0" points="1298.286017031362,649.8736859001674 911.2657040466796,674.731595983392 1083.2482789219584,327.13321811644056 " stroke="#647f64" stroke-opacity="1.0" stroke-width="2.0" />
<polygon fill="#3f3f3f" fill-opacity="1.0" points="1292.9656618427412,661.1344556093849 906.2964514708415,657.0851170861713 1103.1378866864168,324.2444273044439 " stroke="#647f64" stroke-opacity="1.0" stroke-width="2.0" />
<polygon fill="#3f3f3f" fill-opacity="1.0" points="1286.6284952543751,671.6724720158858 902.4537330870638,638.9059303372716 1122.9177716585605,322.5840976468422 " stroke="#647f64" stroke-opacity="1.0" stroke-width="2.0" />
<polygon fill="#3f3f3f" fill-opacity="1.0" points="1279.3331591781148,681.4164239610177 899.7699852143875,620.2804767014088 1142.4968556074975,322.1370993375733 " stroke="#647f64" stroke-opacity="1.0" stroke-width="2.0" />
<polygon fill="#3f3f3f" fill-opacity="1.0" points="1271.1432417751173,690.2997407975615 898.2710656438715,601.2971104651344 1161.7856925810113,322.88164873730364 " stroke="#647f64" stroke-opacity="1.0" stroke-width="2.0" />
<polygon fill="#3f3f3f" fill-opacity="1.0" points="1262.1268995331916,698.2609313056239 897.9761490901486,582.0456024882707 1180.6969513766594,324.78946620610486 " stroke="#647f64" stroke-opacity="1.0" stroke-width="2.0" />
<polygon fill="#3f3f3f" fill-opacity="1.0" points="1252.356456438371,705.2438928440952 898.8976598726235,562.6166385005797 1199.1458836890056,327.8259686553243 " stroke="#648064" stroke-opacity="1.0" stroke-width="2.0" />
<polygon fill="#3f3f3f" fill-opacity="1.0" points="1241.9079825597307,711.1981892138151 901.0412419865008,543.1013152139293 1217.0507754537682,331.95049557225525 " stroke="#648064" stroke-opacity="1.0" stroke-width="2.0" />
<polygon fill="#3f3f3f" fill-opacity="1.0" points="1230.8608544659328,716.0792958875493 904.405766519126,523.5906370168624 1234.3333790149404,337.116567095588 " stroke="#648064" stroke-opacity="1.0" stroke-width="2.0" />
<polygon fill="#3f3f3f" fill-opacity="1.0" points="1219.2972999778349,719.8488114471312 908.9833761637445,504.1750160002227 1250.9193238584205,343.27217255264577 " stroke="#648064" stroke-opacity="1.0" stroke-width="2.0" />
<polygon fill="#3f3f3f" fill-opacity="1.0" points="1207.3019298331956,722.4746342587468 914.759566381862,484.94377802925 1266.738503784942,350.36008771200306 " stroke="#648064" stroke-opacity="1.0" stroke-width="2.0" />
<polygon fill="#3f3f3f" fill-opacity="1.0" points="1194.961258896879,723.931103612164 921.7133025679875,465.9846775298364 1281.7254385351332,358.3182188579991 " stroke="#658065" stroke-opacity="1.0" stroke-width="2.0" />
<polygon fill="#3f3f3f" fill-opacity="1.0" points="1182.3632195926655,724.1991047477266 929.8171723776798,447.3834235946213 1295.8196080296545,367.07997165765175 " stroke="#658065" stroke-opacity="1.0" stroke-width="2.0" />
<polygon fill="#3f3f3f" fill-opacity="1.0" points="1169.5966702606927,723.2661373950325 939.0375721925925,429.22321993870224 1308.965757546715,376.5746426662647 " stroke="#658165" stroke-opacity="1.0" stroke-width="2.0" />
<polygon fill="#3f3f3f" fill-opacity="1.0" points="1156.7509011576374,721.1263476482811 949.3349265155216,411.5843211455728 1321.1141723268406,386.72783120614565 " stroke="#658165" stroke-opacity="1.0" stroke-width="2.0" />
<polygon fill="#3f3f3f" fill-opacity="1.0" points="1143.9151408149362,717.7805232042454 960.6639389153338,394.5436075418122 1332.2209202697297,397.4618692539418 " stroke="#658165" stroke-opacity="1.0" stroke-width="2.0" />
<polygon fill="#3f3f3f" fill-opacity="1.0" points="1131.17806545382,713.2360521885769 972.9738729769125,378.1741809248929 1342.2480615692673,408.69626688652966 " stroke="#658165" stroke-opacity="1.0" stroke-width="2.0" />
<polygon fill="#3f3f3f" fill-opacity="1.0" points="1118.6273141247511,707.5068459936294 986.208861555846,362.5449832427014 1351.1638243194027,420.3481707636686 " stroke="#658165" stroke-opacity="1.0" stroke-width="2.0" />
<polygon fill="#3f3f3f" fill-opacity="1.0" points="1106.3490121933771,700.6132267451197 1000.3082424921814,347.7204401869407 1358.9427453144417,432.33283306793913 " stroke="#658165" stroke-opacity="1.0" stroke-width="2.0" />
<polygon fill="#3f3f3f" fill-opacity="1.0" points="1094.4273057355329,692.5817802046943 1015.206918803036,333.760131516089 1365.5657754614315,444.5640882792163 " stroke="#658165" stroke-opacity="1.0" stroke-width="2.0" />
<polygon fill="#3f3f3f" fill-opacity="1.0" points="1082.9439093306796,683.4451750998426 1030.8357412507637,320.718489768075 1371.0203494185564,456.954835132082 " stroke="#658265" stroke-opacity="1.0" stroke-width="2.0" />
<polygon fill="#3f3f3f" fill-opacity="1.0" points="1071.9776696567742,673.2419500505915 1047.121911072417,308.64452885899937 1375.300419270809,469.4175210904087 " stroke="#658265" stroke-opacity="1.0" stroke-width="2.0" />
<polygon fill="#3f3f3f" fill-opacity="1.0" points="1061.6041471906053,662.0162694331357 1063.989400557874,297.5816038931864 1378.406452251521,481.86462667367766 " stroke="#668266" stroke-opacity="1.0" stroke-width="2.0" />
<polygon fill="#3f3f3f" fill-opacity="1.0" points="1051.895218206581,649.8176496830657 1081.3593890788045,287.56720333240673 1380.345392714615,494.2091469845271 " stroke="#668266" stroke-opacity="1.0" stroke-width="2.0" />
<polygon fill="#3f3f3f" fill-opacity="1.0" points="1042.9186991445838,636.700657694369 1099.1507120988686,278.63277448940016 1381.1305887565484,506.3650678162304 " stroke="#668266" stroke-opacity="1.0" stroke-width="2.0" />
<polygon fill="#3f3f3f" fill-opacity="1.0" points="1034.7379952844476,622.7245831140337 1117.280320637676,270.80358312374244 1380.7816840778771,518.2478337622235 " stroke="#668266" stroke-opacity="1.0" stroke-width="2.0" />
<polygon fill="#3f3f3f" fill-opacity="1.0" points="1027.4117755217276,607.9530864652437 1135.6637486171535,264.09860772780405 1379.3244758611193,529.7748058069518 " stroke="#668266" stroke-opacity="1.0" stroke-width="2.0" />
<polygon fill="#3f3f3f" fill-opacity="1.0" points="1020.9936748874566,592.4538251540416 1154.215585489398,258.5304688979711 1376.7907396231458,540.8657059479867 " stroke="#668266" stroke-opacity="1.0" stroke-width="2.0" />
<polygon fill="#3f3f3f" fill-opacity="1.0" points="1015.5320262944939,576.2980595244505 1172.8499515297738,254.10539399260747 1373.2180221757328,551.443046482942 " stroke="#668366" stroke-opacity="1.0" stroke-width="2.0" />
<polygon fill="#3f3f3f" fill-opacity="1.0" points="1011.069622825664,559.5602412247555 1191.4809731780992,250.82321708440213 1368.6494039962372,561.4325416908418 " stroke="#668366" stroke-opacity="1.0" stroke-width="2.0" />
<polygon fill="#3f3f3f" fill-opacity="1.0" points="1007.6435117052137,542.3175862325623 1210.0232558240668,248.67741402189029 1363.1332324707191,570.7634997455477 " stroke="#668366" stroke-opacity="1.0" stroke-width="2.0" />
<polygon fill="#3f3f3f" fill-opacity="1.0" points="1005.2848209160709,524.6496349578904 1228.3923514605087,247.6551722240457 1356.7228276234214,579.3691928180633 " stroke="#668366" stroke-opacity="1.0" stroke-width="2.0" />
<polygon fill="#3f3f3f" fill-opacity="1.0" points="1004.0186192420438,506.6378019017146 1246.505218669439,247.73749464400194 1349.4761620885174,587.1872034542832 " stroke="#668366" stroke-opacity="1.0" stroke-width="2.0" />
<polygon fill="#3f3f3f" fill-opacity="1.0" points="1003.8638103274047,488.3649173916353 1264.2806724608167,248.89933715412195 1341.4555172117784,594.1597454542427 " stroke="#668366" stroke-opacity="1.0" stroke-width="2.0" />
<polygon fill="#3f3f3f" fill-opacity="1.0" points="1004.8330611573439,469.91476394674277 1281.639821552122,251.10977842582426 1332.7271172905341,600.2339576274336 " stroke="#678367" stroke-opacity="1.0" stroke-width="2.0" />
<polygon fill="#3f3f3f" fill-opacity="1.0" points="1006.9327651725673,451.37160983998405 1298.506490757895,254.33222120470515 1323.360744069537,605.3621689553113 " stroke="#678467" stroke-opacity="1.0" stroke-width="2.0" />
<polygon fill="#3f3f3f" fill-opacity="1.0" points="1010.1630400409051,432.81974242852743 1314.8076262516965,258.52462371551013 1313.4293337073987,609.5021338559624 " stroke="#678467" stroke-opacity="1.0" stroke-width="2.0" />
<polygon fill="#3f3f3f" fill-opacity="1.0" points="1014.5177599191993,414.34300381079436 1330.4736815679657,263.6397597732344 1303.0085585128354,612.6172364159713 " stroke="#678467" stroke-opacity="1.0" stroke-width="2.0" />
<polygon fill="#3f3f3f" fill-opacity="1.0" points="1019.9846218510373,396.02433134304783 1345.4389823274619,269.62550602695126 1292.1763958215006,614.6766626300014 " stroke="#678467" stroke-opacity="1.0" stroke-width="2.0" />
<polygon fill="#3f3f3f" fill-opacity="1.0" points="1026.5452457610352,377.9453055090396 1359.6420677964952,276.42515462257904 1281.012686442469,615.6555398683818 " stroke="#678467" stroke-opacity="1.0" stroke-width="2.0" />
<polygon fill="#3f3f3f" fill-opacity="1.0" points="1034.1753073254015,360.1857075833315 1373.0260075264448,283.9777494405032 1269.598685148154,615.5350429761653 " stroke="#678467" stroke-opacity="1.0" stroke-width="2.0" />
<polygon fill="#3f3f3f" fill-opacity="1.0" points="1042.8447028223495,342.82308946306506 1385.5386914651676,292.21844394433765 1258.0166057124832,614.3024665925975 " stroke="#678467" stroke-opacity="1.0" stroke-width="2.0" />
<polygon fill="#3f3f3f" fill-opacity="1.0" points="1052.5177448955567,325.9323579643828 1397.1330920851287,301.07887856884156 1246.3491630193141,611.9512634667756 " stroke="#678567" stroke-opacity="1.0" stroke-width="2.0" />
<polygon fill="#3f3f3f" fill-opacity="1.0" points="1063.1533880001348,309.58537578909113 1407.7674972334237,310.48757547852665 1234.6791147664414,608.4810487323825 " stroke="#678567" stroke-opacity="1.0" stroke-width="2.0" />
<polygon fill="#3f3f3f" fill-opacity="1.0" points="1074.7054821443942,293.8505812648519 1417.4057125755494,320.37034844437414 1223.0888052800572,603.8975702907741 " stroke="#678567" stroke-opacity="1.0" stroke-width="2.0" />
<polygon fill="#3f3f3f" fill-opacity="1.0" points="1087.123053392825,278.79262884901544 1426.017232676727,330.65072551462674 1211.6597139304479,598.2126456363582 " stroke="#678567" stroke-opacity="1.0" stroke-width="2.0" />
<polygon fill="#3f3f3f" fill-opacity="1.0" points="1100.3506094569773,264.47205226262446 1433.577379940974,341.25038209725057 1200.4720106020484,591.4440656401249 " stroke="#688568" stroke-opacity="1.0" stroke-width="2.0" />
<polygon fill="#3f3f3f" fill-opacity="1.0" points="1114.3284685719743,250.94495198804987 1440.0674108078301,352.089582026535 1189.604120620195,583.6154659854152 " stroke="#688568" stroke-opacity="1.0" stroke-width="2.0" />
<polygon fill="#3f3f3f" fill-opacity="1.0" points="1128.9931097379604,238.26270872174976 1445.4745887888266,363.08762415470176 1179.1323014732127,574.7561671235483 " stroke="#688568" stroke-opacity="1.0" stroke-width="2.0" />
<polygon fill="#3f3f3f" fill-opacity="1.0" points="1144.2775422983575,226.47172422375994 1449.7922241092815,374.1632919913205 1169.1302335923608,564.9009837849198 " stroke="#688568" stroke-opacity="1.0" stroke-width="2.0" />
<polygon fill="#3f3f3f" fill-opacity="1.0" points="1160.1116927310345,215.61319084842742 1453.0196799049536,385.23530390891915 1159.6686273640125,554.0900052426537 " stroke="#688668" stroke-opacity="1.0" stroke-width="2.0" />
<polygon fill="#3f3f3f" fill-opacity="1.0" points="1176.422806444751,205.72289087761337 1455.162345106366,396.22276144231125 1150.8148484488831,542.3683476800757 " stroke="#688668" stroke-opacity="1.0" stroke-width="2.0" />
<polygon fill="#3f3f3f" fill-opacity="1.0" points="1193.1358623019776,196.83102660892138 1456.2315743253066,407.0455932317736 1142.6325633727156,529.785880159305 " stroke="#688668" stroke-opacity="1.0" stroke-width="2.0" />
<polygon fill="#3f3f3f" fill-opacity="1.0" points="1210.1739975307041,188.96208197850592 1456.2445952370856,417.6249921960628 1135.1814072322102,516.3969258254313 " stroke="#688668" stroke-opacity="1.0" stroke-width="2.0" />
<polygon fill="#3f3f3f" fill-opacity="1.0" points="1227.458940642454,182.1347163215373 1455.224384127666,427.88384357018117 1128.5166752298803,502.25994010828174 " stroke="#688668" stroke-opacity="1.0" stroke-width="2.0" />
<polygon fill="#3f3f3f" fill-opacity="1.0" points="1244.9114499414975,176.3616906945278 1453.199510445794,437.74714150433164 1122.6890396127083,487.43716780114084 " stroke="#688668" stroke-opacity="1.0" stroke-width="2.0" />
<polygon fill="#3f3f3f" fill-opacity="1.0" points="1262.4517551914557,171.649827003353 1450.2039513658692,447.142391994406 1117.7442934426751,471.99428100224077 " stroke="#688668" stroke-opacity="1.0" stroke-width="2.0" />
<polygon fill="#3f3f3f" fill-opacity="1.0" points="1279.9999999999995,168.0 1446.2768775266125,455.99999999999966 1113.7231224733878,456.0000000000001 " stroke="#698769" stroke-opacity="1.0" stroke-width="2.0" />
</svg>
